<?xml version="1.0" encoding="utf-8"?>
<!-- Generator: Adobe Illustrator 16.0.0, SVG Export Plug-In . SVG Version: 6.00 Build 0)  -->
<!DOCTYPE svg PUBLIC "-//W3C//DTD SVG 1.1//EN" "http://www.w3.org/Graphics/SVG/1.1/DTD/svg11.dtd">
<svg version="1.1" id="Layer_1" xmlns="http://www.w3.org/2000/svg" xmlns:xlink="http://www.w3.org/1999/xlink" x="0px" y="0px"
	 width="960px" height="190.111px" viewBox="0 0 960 190.111" enable-background="new 0 0 960 190.111" xml:space="preserve">
<rect fill="#FFFFFF" width="960" height="190.111"/>
<g>
	<path fill="#0A2D47" d="M385.873,119.25c-3.023,4.688-6.651,9.223-10.884,13.304c-2.57,2.721-4.988,4.988-7.71,6.802l-7.559,5.594
		c-3.175,2.117-5.744,3.779-8.919,5.291c-3.023,1.36-5.896,2.419-8.919,3.326c-1.21,0.302-2.419,0.453-3.628,0.453
		c-2.116,0-4.232-0.453-6.35-1.059c-1.209-0.604-2.871-1.209-3.779-1.965c-2.871-1.814-5.139-4.535-6.803-7.559
		c-1.511-3.477-2.115-6.803-2.721-10.582c0-1.662-0.15-3.023-0.15-4.535c-0.151-1.512-0.151-3.023-0.151-4.535v-1.965
		c0.151-1.965,0.302-3.93,0.604-5.744c1.059-5.896,2.418-11.641,4.232-17.233c1.361-4.384,3.023-8.768,4.988-13.151
		c1.21-3.326,2.873-6.652,4.838-9.675c2.268-4.082,4.687-8.466,7.709-12.094c1.059-1.36,2.268-3.174,3.326-4.384
		c0.453-0.454,0.756-0.907,1.209-1.209c2.57-2.268,4.535-4.988,7.559-6.803c2.722-2.267,5.442-3.779,8.164-5.14
		c1.662-0.604,3.174-0.907,4.837-0.907c1.813,0,3.779,0.453,5.442,1.209c3.326,1.663,5.291,4.384,6.197,8.012
		c0.454,1.058,0.605,1.814,0.605,2.721v2.267c0,4.535-1.512,8.919-2.722,13.454c-2.116,5.593-4.687,11.036-7.71,16.024l-4.535,7.407
		c-1.058,0.756-1.813,1.663-2.115,2.57c-0.454,0.454-0.908,0.605-1.21,0.605s-0.453-0.151-0.756-0.454
		c-0.151-0.302-0.756-0.454-0.907-0.907c-0.302-0.151-1.058,0-1.058-0.604c0-0.454,0.302-0.756,0.756-1.058
		c3.175-6.198,6.198-12.245,8.919-18.745c1.965-4.837,3.779-10.128,4.838-15.117c0.302-2.116,0.756-4.233,0.756-6.349
		c0-1.36-0.152-2.721-0.605-4.082c0-0.454-0.15-0.756-0.15-0.907c0-0.756-0.605-1.058-1.059-1.058c-0.605,0-1.209-0.151-1.814-0.151
		c-1.209,0-2.418,0.302-3.477,0.756c-2.268,1.209-4.535,2.268-6.5,3.628c-1.663,1.512-3.477,2.418-4.838,3.93l-4.686,5.14
		c-3.326,3.931-6.35,9.07-8.769,13.757c-2.419,4.082-4.384,8.163-6.349,12.547c-1.059,2.57-1.965,5.291-2.721,8.012
		c-0.454,0.907-0.908,1.814-1.059,2.873c-1.209,3.476-2.117,7.255-2.721,11.035c-0.152,1.814-0.605,3.931-0.756,5.594
		c-0.152,1.36-0.605,2.872-0.605,3.93c-0.15,1.21-0.303,2.57-0.303,3.779c0,2.117,0.303,4.233,0.454,6.501
		c0,2.721,0.604,5.744,1.36,8.163c0.453,2.418,1.361,4.384,2.873,6.35c0.906,1.359,2.268,2.268,3.627,2.569
		c0.756,0,1.361,0.151,1.966,0.302c1.512-0.15,3.175-0.604,4.384-1.209c4.988-1.814,9.523-4.535,14.361-7.105
		c2.569-1.813,5.593-3.325,8.162-5.895c1.512-0.907,2.57-2.117,4.082-3.326c4.687-3.93,9.978-8.768,13.454-13.152
		c5.745-6.349,7.407-8.768,8.919-8.768c0.303,0,0.605-0.15,0.907-0.15s0.604,0.15,0.907,0.906
		C389.652,113.506,388.14,116.529,385.873,119.25z M324.044,107.762c0,0,0.151,0,0.151-0.15c0,0-0.151-0.152-0.151-0.303V107.762z
		 M324.499,102.32v-0.605h-0.152v0.605H324.499z M324.499,105.191c0,0.303,0,0.303,0.15,0.303c0-0.15,0.303-1.059,0.303-1.512
		c-0.303,0.303-0.453,0.453-0.453,0.756V105.191z M325.405,101.715c-0.15,0.605-0.15,1.512-0.453,2.268
		c0.303-0.15,0.453-0.303,0.453-0.453c0.453-1.814,0.907-3.628,1.663-5.745c0-0.302,0-0.907,0.302-1.209
		c-0.302,0.151-0.604,0.454-0.906,0.907C326.161,98.843,325.708,100.052,325.405,101.715z M325.405,98.541h0.303l-0.303-0.302
		V98.541z M326.766,94.459c-0.152,0.151-0.303,0.151-0.303,0.151L326.766,94.459z M327.37,93.099c0,0.151-0.302,0.151-0.302,0.453
		v0.454c0.151-0.151,0.302-0.302,0.302-0.454V93.099z M336.44,74.202h0.151c-0.755,1.965-1.511,3.931-3.022,5.442
		c-0.303,1.058-0.303,1.663-0.605,2.116c-1.965,3.931-3.93,8.314-5.14,12.698c-0.302,0.756-0.454,1.209-0.454,2.116
		c0.756-0.756,0.756-1.36,1.059-2.418c2.721-7.559,5.896-14.664,10.129-21.164c2.115-3.326,4.383-6.803,6.65-9.977
		c0.454-0.303,0.605-0.907,1.059-1.361c0.756-0.907,1.663-1.36,2.117-2.116c0.302-0.454,0.302-0.907,0.604-1.209
		c-1.209,0.756-2.268,1.814-3.023,3.175l-1.813,1.512c-0.604,1.209-1.36,2.267-2.569,3.326c-0.152,0.907-0.454,1.209-0.908,1.209
		c-0.15,0.907-0.604,2.117-1.511,2.419v-0.605l-0.454,0.605h0.454c-0.454,1.209-0.756,2.418-1.966,3.326v-1.209
		c-0.453,0.302-0.453,0.907-0.453,1.209C336.591,73.446,336.44,73.9,336.44,74.202z M327.975,92.041v-0.605
		c-0.151,0.151-0.151,0.151-0.151,0.454C327.824,91.889,327.824,92.041,327.975,92.041z M328.125,91.285
		c0.454-0.303,0.454-0.907,0.454-1.209c-0.454,0.151-0.454,0.454-0.454,0.756V91.285z M328.58,90.075
		c0.454-0.302,0.454-1.058,0.454-1.512C328.731,88.866,328.731,89.47,328.58,90.075z M329.94,86.447v0.151c0,0,0-0.151,0.151-0.151
		H329.94z M330.696,84.936c-0.453,0.302-0.453,0.756-0.453,1.209C330.545,85.994,330.545,85.389,330.696,84.936z M330.696,84.936
		c0.303-0.303,0.303-0.605,0.453-1.059C330.847,84.18,330.696,84.482,330.696,84.936z M331.149,83.877c0,0,0.152,0,0.152-0.453
		v-0.151c0,0.151-0.152,0.151-0.152,0.151V83.877z M331.754,81.912v0.151c0.15,0,0.15-0.151,0.303-0.151H331.754z M332.51,81.61
		c0-0.151,0.15-0.454,0.303-0.756C332.51,81.156,332.51,81.307,332.51,81.61z M332.963,80.249c0,0.151-0.15,0.454-0.15,0.605
		C332.813,80.854,332.813,80.551,332.963,80.249z M332.963,80.249c0-0.151,0-0.454,0.151-0.604
		C332.963,79.795,332.963,79.947,332.963,80.249z M333.115,79.645h0.454c0,0-0.152-0.151-0.152-0.302L333.115,79.645z
		 M337.196,73.295l-0.604,0.907c0-0.151,0-0.453,0.151-0.907H337.196z M337.045,78.586c-0.303,0.151-0.303,0.453-0.303,0.756
		C336.894,79.04,336.894,78.737,337.045,78.586z M337.045,78.586c0.453-0.454,0.604-0.907,1.058-1.058
		C337.499,77.679,337.196,78.133,337.045,78.586z M337.347,72.086c0.303,0,0.303-0.302,0.303-0.604
		C337.499,71.784,337.499,72.086,337.347,72.086z M338.254,77.226v-0.151c0,0.151-0.151,0.302-0.151,0.454
		C338.103,77.377,338.254,77.377,338.254,77.226z M339.313,74.807c-0.454,0.151-0.454,0.454-0.454,0.756
		C339.162,75.261,339.162,74.958,339.313,74.807z M340.069,73.9c-0.605,0.151-0.756,0.454-0.756,0.907
		C339.463,74.354,339.615,74.051,340.069,73.9z M340.522,72.993c-0.303,0.151-0.303,0.453-0.453,0.907
		C340.522,73.749,340.522,73.295,340.522,72.993z M341.126,71.481c-0.454,0.302-0.454,0.604-0.604,1.512
		C340.975,72.388,341.126,72.086,341.126,71.481z M342.034,70.423c-0.605,0.151-0.756,0.604-0.907,1.058
		C341.731,71.179,342.034,70.876,342.034,70.423z M342.94,69.365c-0.756,0.151-0.906,0.605-0.906,1.059
		C342.487,70.272,342.94,69.818,342.94,69.365z M343.394,68.156c-0.302,0.151-0.302,0.454-0.454,1.209
		C343.394,68.609,343.394,68.458,343.394,68.156z M344.301,66.644c-0.605,0.454-0.756,0.907-0.907,1.512
		C344.15,67.702,344.301,67.551,344.301,66.644z M344.15,63.016c-0.151,0-0.302-0.151-0.302-0.151c-0.152,0-0.152,0.151-0.152,0.151
		H344.15z M345.963,64.83c-0.906,0.453-1.512,1.058-1.662,1.814C345.36,66.342,345.662,65.888,345.963,64.83z M349.139,60.597
		c-0.756,0.454-1.361,1.209-1.966,2.419c-0.604,0.453-1.21,0.907-1.21,1.814c0.605-0.303,1.21-0.907,1.512-1.814
		c0.756-0.454,1.512-1.361,1.814-2.419H349.139z M349.139,58.179l0.302-0.303c0,0,0.151-0.151,0.151-0.453l-0.303,0.453
		C349.29,58.027,349.29,58.027,349.139,58.179z M350.045,60.144l0.303-0.454c0.453-0.151,1.059-0.755,1.36-1.36
		c-0.756,0-1.21,0.605-1.512,1.36C350.197,59.841,350.045,59.993,350.045,60.144z M360.174,95.366
		c0.453-0.151,0.604-0.454,0.756-0.756L360.174,95.366z M361.686,93.099c-0.303,0.151-0.454,0.453-0.454,0.907L361.686,93.099z
		 M362.139,92.343c-0.453,0.151-0.453,0.453-0.453,0.756C361.988,92.796,361.988,92.645,362.139,92.343z M363.045,91.285
		c-0.453,0.151-0.906,0.453-0.906,1.058C362.895,92.191,363.045,91.587,363.045,91.285z M364.86,85.54
		c-0.303,0.302-0.303,0.302-0.303,0.454c0,0.151,0,0.302,0.303,0.454c-0.303,0.302-0.453,0.756-0.604,1.209v-0.151l-0.907,1.814
		c-0.15,0.604-0.303,1.209-0.303,1.663c0-0.151,0.303-0.453,0.605-0.604l1.965-3.477c0.151-0.453,0.151-0.907,0.151-1.36
		c-0.151,0-0.302,0-0.454,0.151c-0.15,0.302-0.15,0.604-0.453,0.907V85.54z M364.709,91.133c0-0.151,0.15-0.454,0.15-0.756
		C364.709,90.529,364.709,90.831,364.709,91.133z M365.313,85.238c-0.15,0.151-0.302,0.302-0.453,0.302h0.453V85.238z
		 M365.767,85.54c0.454-0.151,0.604-0.302,0.604-0.907C365.918,84.784,365.918,85.238,365.767,85.54z M366.825,83.726
		c-0.302,0.151-0.453,0.454-0.453,0.907C366.825,84.482,366.825,84.028,366.825,83.726z M366.825,83.726
		c0.908-0.605,1.059-1.512,1.059-2.268C367.127,81.912,366.977,82.668,366.825,83.726z M367.883,81.458
		c0.151-0.151,0.303-0.302,0.303-0.756C367.883,81.005,367.883,81.307,367.883,81.458z M368.489,79.795V80.4
		c0.453-0.302,0.453-0.907,0.453-1.361C368.489,79.191,368.489,79.493,368.489,79.795z M369.092,78.737c0,0-0.15,0.151-0.15,0.302
		c0,0,0.15-0.151,0.303-0.151C369.245,78.737,369.092,78.737,369.092,78.737z"/>
	<path fill="#0A2D47" d="M391.764,120.46c-0.303,0.604-0.454,1.512-0.605,2.116v0.151c0,0.151,0,0.604,0.303,0.604
		s0.303,0,0.453-0.303c0.605-0.15,1.361-0.453,1.814-0.756c3.326-2.418,6.953-5.29,9.373-8.768c2.418-3.325,5.441-6.197,7.709-9.372
		c0.453-1.058,1.209-2.419,2.116-3.477c1.058-1.512,1.966-3.477,3.175-5.14c0.15-0.604,0.756-1.058,1.209-1.058
		c0.151,0,3.477,0.151,3.629,0.151l1.058,0.453c2.116,0.454,1.813,1.965,2.116,3.779c0.151,0.907,0.151,1.663,0.151,2.57
		c-0.151,3.175-0.151,6.349-0.454,9.524c-0.15,0.302-0.15,0.604-0.15,0.907c0,0.302,0,0.604,0.15,0.906v0.151
		c0,0.151,0,0.151,0.152,0.151h0.15c1.059-0.453,11.641-4.384,12.698-4.988c2.722-1.361,5.745-2.721,8.314-4.232
		c0.151,0,0.453-0.152,0.756-0.303c0.151,0,0.302,0.15,0.604,0.15c0.756,0.152,0.756,0.756,1.059,1.21c0.15,0,0,0.151,0,0.302
		c-0.151,0.152-0.303,0.303-0.454,0.303l-12.396,6.803c-1.361,0.756-8.314,4.838-9.373,5.594c-0.756,0.453-1.058,1.209-1.058,2.115
		l-2.116,17.838c-0.303,2.42-0.605,4.989-1.209,7.559c-0.303,2.268-0.908,4.535-1.512,6.803c-0.303,1.663-0.756,3.478-1.361,5.141
		c-1.209,3.627-2.418,7.104-4.082,10.732c-1.813,3.931-3.779,7.861-6.65,11.338c-3.023,4.082-6.803,7.256-11.338,9.221
		c-2.419,0.907-4.687,1.663-7.105,1.663h-0.756c-0.906-0.151-1.813-0.302-2.569-0.604c-3.779-2.116-6.349-5.14-6.954-9.675
		c0-0.454,0-0.756,0-1.21c0-0.906,0-1.813,0.151-2.721c0.302-3.628,1.512-7.104,3.175-10.43c1.814-3.932,3.93-7.711,6.349-11.338
		c1.663-2.722,3.325-5.291,5.14-7.861c1.663-2.116,3.023-4.384,4.687-6.35c2.268-3.023,4.687-5.895,7.104-8.768
		c3.175-3.779,6.803-7.406,10.582-10.732c0.907-0.756,1.512-1.512,1.663-2.721c0.151-0.605-2.722,2.721-3.175,2.721c0,0,0,0,0-0.151
		c0.605-4.232,1.059-8.768,1.512-12.849c0-0.303,0.151-1.059,0.151-1.361v-0.453c0-0.151,0.151-0.303,0.151-0.453
		c0-0.303-0.151-0.605-0.303-0.756h-0.303c-0.302,0-0.302,0.906-0.604,1.209c-1.814,3.326-3.932,6.651-6.047,9.826
		c-2.419,3.325-5.594,6.803-8.466,9.372c-2.116,1.813-4.233,3.325-6.501,4.535c-0.604,0.302-1.058,0.302-1.965,0.302
		c-0.604,0-1.512-0.15-2.418-0.756c-1.512-1.209-2.722-2.871-3.477-4.837c-0.756-0.604-0.908-1.36-0.908-2.268
		c0-0.302,0-0.756,0-1.058c0-0.303,0-0.605,0.152-1.059c0.604-3.477,2.115-6.35,3.627-9.675c0.756-0.604,1.059-1.512,1.21-2.116
		c0,0,1.813-6.954,5.896-6.954c0.303,0,0.604,0,0.906,0.151c0.756,0.302,1.059,1.059,1.059,2.116c0,0.151,0,0.454,0,0.604
		c-0.453,4.082-1.814,6.954-1.814,6.954C394.485,113.96,392.973,117.285,391.764,120.46z M416.405,126.507
		c0,0-0.152-0.151-0.303-0.151h-0.303l-2.872,2.721l-2.569,2.873l-6.35,7.709l-4.232,5.896c-2.721,3.627-5.141,7.256-7.408,11.035
		c-1.662,2.721-3.174,5.593-4.686,8.314c-1.965,3.477-3.326,7.256-4.082,11.035c-0.302,0.756-0.302,1.359-0.453,2.115
		c0,0.454,0,0.756,0,1.21c0,1.21,0.151,2.419,0.303,3.478c0.15,0.756,0.303,1.512,0.604,2.115c0.454,0.756,1.21,1.059,1.966,1.059
		h0.453c1.36-0.303,2.721-0.604,4.232-1.209c2.57-1.361,5.14-2.873,7.256-4.988c1.965-2.117,3.779-4.385,5.291-6.652
		c1.361-2.418,2.419-4.837,3.628-7.256c1.814-4.082,3.175-8.314,4.535-12.698s2.268-8.768,3.175-13.303
		c0.604-3.175,0.906-6.5,1.36-9.675L416.405,126.507z M384.508,164.904c-0.152,0.15-0.152,0.302-0.152,0.453L384.508,164.904z
		 M384.81,164.602c0.151,0,0-0.151,0-0.151l-0.151,0.151H384.81z M385.415,163.24c0.151-0.15,0.151-0.302,0.151-0.302l-0.302,0.302
		v0.152L385.415,163.24z M386.02,162.183c-0.303,0.151-0.454,0.454-0.454,0.756C385.868,162.787,386.02,162.484,386.02,162.183z
		 M386.473,161.275c-0.303,0.151-0.303,0.303-0.453,0.756C386.322,161.881,386.473,161.578,386.473,161.275z M391.764,152.961
		c0.302-0.453,0.302-0.756,0.453-1.209l-0.756,0.453l-1.059,1.512c-0.15,0-0.15-0.15-0.15-0.15l-0.151,0.15
		c-0.151,0.303-0.303,0.605-0.604,0.907c-0.151,0.151-0.303,0.454-0.303,0.756l-2.57,3.931c-0.15,0.15-0.302,0.303-0.302,0.453
		c0,0.151,0.151,0.303,0.302,0.303c-0.15,0.453-0.15,0.906-0.15,1.209c0.302-0.303,0.604-0.604,0.756-0.906L391.764,152.961z
		 M400.229,139.205c0,0.15,0,0.15,0.151,0.303l-0.604,0.756c0,0.302,0,0.453-0.151,0.756l-0.604,0.453
		c0,0.15-0.303,0.453-0.303,0.756l-0.756,0.453h0.151l-0.604,0.756c0,0.303-0.151,0.453-0.151,0.756l-0.907,0.453v-0.15l-0.303,0.15
		l-0.453,0.756c0,0-0.15,0.152,0,0.152v0.302c-0.303,0.302-0.303,0.454-0.453,0.756l-0.453,0.756c-0.152,0-0.303-0.151-0.303-0.151
		c-0.151,0-0.151,0.151-0.151,0.151l-0.454,0.907h-0.15c0,0.15,0.15,0.303,0.15,0.303c-0.302,0.302-0.453,0.604-0.604,0.906
		l-0.152-0.15c0,0-0.15,0-0.15,0.15l-0.453,0.756c-0.303,0.151-0.454,0.453-0.605,0.756h0.453c0,0.303,0,0.453-0.15,0.756
		c0.303-0.151,0.453-0.453,0.604-0.756c1.058-0.756,1.36-1.662,1.813-2.721c1.21-1.209,2.268-2.57,2.873-3.931
		c0.756-0.604,1.059-1.21,1.36-1.966c0.454-0.302,0.907-0.756,0.907-1.209c1.209-1.059,1.965-2.268,2.721-3.628
		c0.605-0.302,0.907-0.604,0.907-1.209c-0.604,0.151-0.756,0.604-1.058,1.058c-0.454,0.605-0.908,1.209-1.664,1.663
		c-0.15,0-0.15-0.151-0.15-0.151L400.229,139.205z M393.426,152.659c0.151-0.303,0.303-0.604,0.303-0.907
		c-0.151,0.303-0.151,0.604-0.303,0.756l-0.15,0.151H393.426z M396.752,147.368c-0.303,0.151-0.303,0.302-0.453,0.604
		L396.752,147.368z M397.206,143.438v-0.15c-0.15,0-0.15,0.15-0.15,0.15C397.206,143.438,397.206,143.438,397.206,143.438z
		 M397.508,146.158c-0.303,0.303-0.303,0.605-0.303,0.908L397.508,146.158z M397.508,146.158c0.303-0.15,0.604-0.453,0.604-0.756
		L397.508,146.158z M399.926,143.135c-0.604,0.152-0.756,0.605-0.906,1.059C399.473,144.043,399.776,143.589,399.926,143.135z
		 M400.38,142.229c-0.302,0.15-0.302,0.303-0.454,0.756C400.229,142.833,400.38,142.531,400.38,142.229z M402.95,117.285
		c-0.15,0-0.15,0.151-0.302,0.303c-0.756,0.756-1.512,1.814-2.569,2.57c-0.152,0,0,0.15,0,0.302h0.15
		c1.059-0.756,1.965-1.663,2.419-2.722C402.799,117.588,402.95,117.437,402.95,117.285z M404.461,174.881
		c-0.756,0.303-1.058,1.059-1.359,1.965c-0.454,0.151-0.756,0.453-0.908,1.059c0.303,0,0.454-0.151,0.756-0.303
		c-0.15,1.059-1.058,1.814-1.813,2.57c-0.454,0.453-0.756,0.756-0.756,1.209l0.907-0.453c2.418-2.268,4.232-4.838,5.744-7.71
		c0.151-0.151,0.151-0.453,0.151-0.756l-2.116,2.722c-0.303,0.453-0.605,1.058-1.209,1.209
		C404.16,175.939,404.311,175.334,404.461,174.881z M401.288,141.02c-0.303,0.15-0.303,0.302-0.453,0.756
		C401.136,141.623,401.136,141.321,401.288,141.02z M402.346,139.81c-0.605,0.302-0.908,0.756-1.059,1.21
		C401.892,140.867,402.043,140.414,402.346,139.81z M403.102,138.752c-0.454,0.15-0.756,0.604-0.756,1.058
		C402.799,139.658,402.95,139.205,403.102,138.752z M402.95,181.23c-0.15,0.15-0.15,0.453-0.453,0.756
		c0.453-0.152,0.756-0.303,0.907-0.605c1.36-1.209,2.419-2.57,3.477-4.082c0.151-0.302,0.151-0.604,0.151-0.906
		c-0.303,0.15-0.303,0.303-0.453,0.453L402.95,181.23z M402.648,120.158c1.058-0.605,2.872-1.361,3.175-2.57
		C405.067,118.192,402.95,118.797,402.648,120.158z M414.137,100.959h0.453c-0.151,0.302-0.303,0.453-0.303,0.755l-0.453,0.453
		h-0.303l-0.453,0.756h0.303c0,0.152-0.152,0.454-0.152,0.756l-0.906,0.605v-0.151c0,0-0.151,0-0.303,0.151
		c-0.15,0-0.303,0.15-0.303,0.303v0.604c0,0.303-0.302,0.605-0.302,0.908c-0.151,0-0.454-0.152-0.454-0.152
		c-0.15,0-0.15,0.152-0.15,0.152c0,0.15-0.151,0.302-0.303,0.453l-0.15,0.756c0,0.604-0.303,0.906-0.756,1.209v-0.15l-0.303,0.302
		v0.604c0,0.453-0.453,0.907-1.059,1.209h-0.453c0,0.454,0,0.605,0.151,0.605c-0.454,0.453-0.604,0.906-0.756,1.662
		c-0.151,0.454-0.303,0.907-0.604,1.21c-0.907,0.907-3.175,1.663-3.629,3.325c1.21-0.906,3.326-1.813,3.779-3.023
		c0.303-0.604,0.756-1.058,1.361-1.965c1.512-2.418,3.174-4.686,4.535-7.256l0.756-1.209c0.302-0.454,0.906-1.059,1.058-1.814
		c0.454-0.605,1.058-1.058,1.36-2.117c0-0.302,0.605-0.604,0.756-1.058v-0.302v-0.151c0,0-0.15,0-0.303,0
		c0,0-0.302,0.151-0.453,0.151c-0.15,0-0.15,0.302-0.15,0.302s0,0.151,0.15,0.302c-0.15,0.151-0.15,0.454-0.15,0.605
		c-0.303,0.151-0.605,0.454-0.756,0.756l-0.152-0.151c0,0-0.15,0-0.15,0.151C414.439,100.506,414.288,100.657,414.137,100.959z
		 M404.008,137.542c-0.453,0.151-0.756,0.604-0.756,1.058C403.706,138.449,404.008,137.996,404.008,137.542z M403.404,136.333
		c0.604-0.303,1.21-0.907,1.36-1.663C404.008,134.973,403.706,135.577,403.404,136.333z M404.916,136.333
		c-0.454,0.151-0.756,0.604-0.907,1.209C404.764,137.24,404.916,136.786,404.916,136.333z M405.067,173.974
		c-0.303,0.151-0.453,0.454-0.605,0.907C404.916,174.578,405.067,174.276,405.067,173.974z M404.764,134.67
		c0.453-0.151,0.907-0.604,0.907-1.059c0.756-0.453,1.209-0.906,1.36-1.662c-0.604,0.302-1.059,0.756-1.36,1.512
		C405.217,133.763,404.916,134.065,404.764,134.67z M405.52,173.218c-0.453,0.151-0.453,0.454-0.453,0.756
		C405.37,173.822,405.37,173.521,405.52,173.218z M406.276,134.67c-0.453,0.303-0.756,0.756-0.906,1.209
		C405.973,135.729,406.276,135.274,406.276,134.67z M405.52,173.218c0.303-0.151,0.453-0.453,0.453-0.756
		C405.671,172.613,405.671,172.916,405.52,173.218z M405.823,117.588c0.15,0,0.302-0.151,0.453-0.303L405.823,117.588z
		 M405.973,172.462c0-0.151,0.151-0.151,0.151-0.302c0.151,0,0-0.151,0-0.151s-0.151,0-0.151,0.151V172.462z M406.276,117.285
		c0.453-0.453,0.907-1.36,1.209-2.116C406.88,115.623,406.427,116.228,406.276,117.285z M407.183,133.611
		c-0.303,0.303-0.303,0.605-0.303,0.756C407.032,134.217,407.183,133.914,407.183,133.611z M407.032,131.949
		c0.604-0.303,1.209-0.907,1.36-1.663C407.636,130.588,407.334,131.193,407.032,131.949z M408.392,170.043
		c-0.604,0.756-1.058,1.512-1.209,2.419c0.604-0.604,1.058-1.36,1.36-2.268v-0.151H408.392z M407.788,114.716
		c0.907-0.454,1.059-0.907,1.059-1.36C408.392,113.506,407.939,113.96,407.788,114.716z M408.543,132.1
		c-0.303,0.151-0.303,0.454-0.303,0.605C408.543,132.554,408.543,132.402,408.543,132.1z M408.846,129.984
		c0.756-0.303,1.209-0.908,1.359-1.664C409.602,128.623,408.997,129.229,408.846,129.984z M409.148,112.75
		c0.604-0.302,0.756-1.058,0.907-1.662C409.602,111.391,409.148,111.692,409.148,112.75z M410.508,129.984
		c-0.604,0.15-0.906,0.604-0.906,1.209C410.055,130.891,410.358,130.438,410.508,129.984z M410.358,110.482
		c0.604-0.302,0.906-0.756,0.906-1.209C410.961,109.425,410.508,109.879,410.358,110.482z M411.567,127.111
		c0.453-0.15,0.756-0.453,0.756-0.906C411.717,126.355,411.567,126.658,411.567,127.111z M411.717,108.518
		c0.454-0.15,0.756-0.604,0.756-1.209C412.02,107.611,411.717,107.913,411.717,108.518z M413.079,106.553
		c0.303-0.303,0.453-0.756,0.604-1.361C413.532,105.494,413.079,105.947,413.079,106.553z M414.137,104.588
		c0.453-0.303,1.058-0.756,1.058-1.664C414.59,103.227,414.288,103.832,414.137,104.588z M414.439,125.902
		c0.604-0.151,0.756-0.605,0.907-1.059C414.893,124.995,414.59,125.449,414.439,125.902z M416.252,101.262
		c-0.604,0.302-0.756,0.756-0.756,0.906c0.152-0.15,0.605-0.453,0.756-0.755l0.152-0.151H416.252z"/>
	<path fill="#0A2D47" d="M497.579,107.913l-0.15,0.151c0,0.604-0.15,0.756-0.453,1.059c-1.209,1.058-2.268,2.268-3.326,3.93
		c-1.059,1.36-2.117,2.57-2.873,4.232c-1.662,2.721-3.174,5.594-5.291,8.617c-2.721,4.535-5.895,8.616-8.313,12.85
		c-1.36,0-2.721,1.965-3.779,3.627c-1.36,0.605-2.267,1.059-2.872,1.664c-0.453,0.302-1.059,0.604-1.512,0.604
		c-0.604,0-1.209-0.302-1.814-0.906c-1.209-0.303-0.906,0-1.662-0.605c-0.151-0.453-0.756-0.906-1.209-1.359
		c-0.756-0.908-1.512-2.268-1.814-3.176c-0.303-1.662-0.453-3.174-0.453-4.837c0.15-2.268,0.604-4.384,0.906-6.802l1.663-7.257
		c0-1.058,0.604-1.813,0.756-2.721l0.604-1.814c0.605-2.268,1.512-4.534,2.268-6.802l1.965-5.443v-0.453h-0.302
		c-0.151,0.303-0.302,0.303-0.454,0.303c-0.906,0.756-1.662,1.512-2.721,2.268c-1.209,1.512-2.57,2.872-3.93,4.686
		c-1.361,1.966-2.722,3.629-3.932,5.745c-2.721,4.687-5.744,10.128-9.069,14.814c-0.454,0.756-1.058,1.36-1.663,1.813
		c-0.604,0.605-1.36,0.907-1.965,0.907c-0.453,0-0.907,0-1.361-0.302c-0.756-0.454-1.512-0.907-2.115-1.814
		c-0.454-0.453-0.908-0.604-1.21-1.209c-0.454-0.907-1.058-1.663-1.36-2.721c-0.453-1.361-0.605-2.722-0.605-4.082
		c0-0.756,0.152-1.361,0.152-2.117s0.15-1.512,0.15-2.268c0-0.453-0.15-0.906-0.15-1.209c0-0.302-0.152-0.604-0.152-1.058
		c0-3.023,1.512-7.407,2.57-10.733c0.453-1.36,1.059-2.872,1.814-4.232c0.15-0.454,0.303-0.907,0.604-1.209l0.604-1.058
		c0.605-0.756,1.059-0.907,1.512-0.907c0.303,0,0.453,0,0.756,0.151c0.303,0,0.453,0.151,0.453,0.302s0,0.302-0.15,0.454
		c0,0.151,0.15,0.151,0.15,0.151v0.303c0-0.151,0-0.151,0.152-0.303c0.15,0,0.604-0.302,0.906-0.453h0.303v0.151
		c-0.151,0.151-0.453,0.605-0.453,0.907c0,0.151,0.15,0.151,0.302,0.302l0.756-0.454c0.151-0.302,0.151-0.454,0.302-0.454
		l0.303-0.302l0.151,0.151v0.604h0.302c0.152,0,0.303,0.151,0.303,0.302c0,0.151-0.15,0.454-0.15,0.605
		c-0.303,0.454-0.454,0.907-0.605,1.36c0,0.151,0,0.151,0.151,0.302h0.151c0.15-0.453,0.453-0.906,0.756-1.208
		c0.15-0.151,0.453-0.151,0.453-0.151c0.453,0,0.453,0.151,0.453,0.454v1.512c0,0.303-0.15,0.604-0.302,1.059
		c-1.36,2.871-2.268,6.047-2.872,8.918c-0.453,1.512-0.605,3.175-0.756,5.141c-0.303,1.359-0.756,2.569-0.907,4.081
		c-0.151,0.604-0.151,1.058-0.151,1.663c0,0.303,0,0.604,0.151,0.756c0.302,0,0.454-0.151,0.756-0.303
		c0.151-0.453,0.454-0.604,0.604-0.906c1.361-1.814,2.721-4.082,4.082-6.047c1.512-2.419,2.872-4.535,4.535-6.652
		c1.965-2.569,3.93-5.139,6.349-7.256l4.081-3.93c0.454-0.454,1.059-0.756,1.512-1.058c0.454-0.302,0.908-0.454,1.361-0.454
		c0.303,0,0.604,0,0.756,0.151h0.604c1.058,0,2.116,0.302,3.023,1.209c0.604,0.605,1.058,1.512,1.058,2.721
		c-0.15,1.058-0.302,2.116-0.302,3.325c-0.454,3.176-1.059,6.199-1.966,9.07c-0.604,2.268-1.209,4.082-1.662,6.198
		c-0.453,1.813-1.209,4.081-1.512,5.896c-0.605,2.268-1.059,4.535-1.512,7.105c-0.453,1.512-0.453,3.174-0.605,4.988v0.604
		c0,0,0,0.151,0.152,0.151c0,0,0.15-0.151,0.302-0.151c0.604-0.302,0.907-0.302,1.21-0.302c1.209,0,1.813-1.21,2.569-1.814
		c2.116-2.872,4.534-5.594,6.198-8.617c3.326-4.535,6.5-9.07,9.221-13.756c1.512-1.36,2.418-3.326,3.779-4.838
		c1.209-0.756,1.965-1.965,2.873-3.023c0.15-0.15,0.453-0.302,0.604-0.302c0.152,0,0.152,0.151,0.303,0.151
		c0.303,0.303,0.453,0.604,0.756,0.604h0.15v0.756h0.152c0.15,0,0.15,0,0.303-0.151h0.15L497.579,107.913z M447.844,128.019v-0.302
		c0,0.15-0.15,0.302-0.15,0.302H447.844z M447.844,127.564l0.454-0.302c0.454-0.454,1.058-0.907,1.36-1.36
		c2.117-2.57,3.779-5.442,5.291-8.012c1.512-2.57,3.174-4.838,4.686-7.256l0.303-0.605c-0.604,0.151-0.906,0.605-1.209,1.209
		c-0.605,1.059-1.36,2.117-2.268,3.175l-0.604,0.907c-0.151,0.151-0.151,0.453-0.303,0.453c-1.813,3.175-3.628,6.35-5.744,9.07
		c-0.756,1.059-1.36,1.512-1.663,2.268L447.844,127.564z M457.973,115.018c-0.907,0.756-1.663,2.117-2.268,3.477
		c-0.453,0.303-0.756,0.605-0.756,1.059l-0.303,0.303c-1.662,3.023-3.93,6.197-5.744,8.919l-0.604,0.756
		c1.058-0.302,1.36-0.907,1.813-1.663c1.059-1.814,2.873-4.082,4.082-6.197c0.453-0.454,0.604-1.361,0.907-1.966
		c0.302-0.302,0.604-0.604,0.756-0.907c0.604-1.059,1.36-1.965,1.813-2.872C457.822,115.623,457.973,115.32,457.973,115.018z
		 M461.147,110.181c-0.604,0.151-0.756,0.604-1.058,1.36c-0.302,0.303-0.756,0.756-0.756,1.36c-0.454,0.151-0.604,0.604-0.907,1.059
		c-0.15,0.151-0.453,0.604-0.453,1.058c0.303-0.302,0.453-0.604,0.604-1.058c0.302-0.151,0.756-0.454,0.756-0.907
		c0.454-0.303,0.756-0.907,0.907-1.512C460.694,111.088,461.147,110.635,461.147,110.181z M460.241,109.425
		c0.453-0.151,0.756-0.604,1.059-1.21C460.694,108.518,460.241,108.971,460.241,109.425z M462.659,108.064
		c-0.604,0.453-0.906,0.906-0.906,1.36C462.055,108.971,462.508,108.669,462.659,108.064z M462.206,106.855l0.303-0.303
		c0.15,0,0.15-0.151,0.15-0.151l0.152-0.151h-0.152c0,0.151-0.15,0.303-0.302,0.303
		C462.357,106.703,462.357,106.703,462.206,106.855z M478.834,134.065c-0.907,0.302-1.209,0.756-1.361,1.512
		c-0.453,0.302-0.755,0.907-0.906,1.511c-0.756,0.454-1.36,1.664-2.268,1.664c-0.453,0-0.756,0.453-0.907,0.906l-0.604,0.907h0.151
		l1.663-1.813c0.906,0,1.662-0.303,1.965-1.512c0.604-0.303,0.756-1.059,1.059-1.663
		C478.229,135.274,478.381,134.67,478.834,134.065z M473.392,138.752c0.604,0,1.059-0.303,1.512-1.059
		c1.966-2.419,3.779-4.988,5.745-7.709l5.291-8.013c0.453-1.058,0.906-2.268,1.662-2.872c0.605-0.907,1.209-1.965,1.662-3.023
		c0.455-0.453,0.908-1.209,1.361-1.965c1.059-0.907,1.662-1.814,2.117-2.721c0.301-0.152,0.453-0.454,0.453-0.908
		c-0.303,0.152-0.453,0.454-0.605,0.756c-0.15,0.303-0.303,0.303-0.756,0.454l-0.906,1.663c0,0.15-0.303,0.453-0.303,0.604
		c-0.15,0-0.303,0-0.303,0.151l-0.604,0.906h-0.152c-0.15,0.151-0.303,0.303-0.303,0.454s0,0.302-0.15,0.453h-0.303l-0.15-0.151
		l-0.152,0.151h-0.15c0.15,0.151,0.15,0.303,0.15,0.303c-0.15,0.151-0.15,0.604-0.301,0.756h0.15l-0.453,0.755
		c-0.152,0.152-0.303,0.454-0.453,0.454c0,0-0.152,0-0.303-0.151c-0.152,0.151-0.152,0.303-0.152,0.453v0.303l-0.15,0.303h0.15
		c-0.453,0.453-0.604,0.604-0.604,0.756c-0.152,0.15-0.303,0.453-0.303,0.604c0,0.302-0.15,0.454-0.453,0.907v-0.151l-0.152,0.151
		c-0.15,0.15-0.301,0.453-0.301,0.604c0,0-0.152,0-0.152,0.151c0,0,0.152,0,0.152,0.15l-0.453,0.605c0,0.15,0,0.604-0.303,0.756
		c-0.303,0.303-0.303,0.453-0.453,0.756l-0.152-0.151c0,0-0.15,0-0.15,0.151c0,0.15-0.303,0.303-0.453,0.303l-0.152,0.15v0.303
		c0,0.303-0.15,0.453-0.303,0.453l-0.453,0.756l-0.303-0.303v0.152c0,0.302-0.15,0.453-0.301,0.604c0,0.303-0.152,0.454-0.455,0.756
		c-0.15,0.152-0.15,0.152-0.15,0.303c0,0.151-0.303,0.453-0.453,0.605h-0.152l-0.453,0.604c-0.15,0.303-0.15,0.756-0.303,0.908
		l-0.15,0.15l0.15,0.151c-0.15,0.302-0.15,0.454-0.453,0.604c0-0.15-0.15-0.15-0.15-0.15s-0.152,0-0.152,0.15
		c-0.15,0.151-0.302,0.303-0.302,0.604h0.302c-0.302,0.303-0.604,0.604-1.058,0.756V132.1l-0.151,0.151
		c0,0.303-0.15,0.604-0.15,0.756s-0.152,0.151-0.152,0.151l0.152,0.151c-0.152,0.302-0.454,0.453-0.605,0.604
		c-0.302,0.453-0.453,0.907-0.906,0.907c0,0.302-0.303,0.604-0.756,0.756c0,0.453-0.151,0.907-0.605,1.209
		c-0.15,0.302-0.302,0.604-0.604,0.907C473.997,138.298,473.695,138.752,473.392,138.752z M474.752,136.786
		c0-0.151-0.15-0.151-0.15-0.151L474.752,136.786z M479.893,132.402c-0.605,0.303-0.756,0.907-1.059,1.663
		C479.59,133.763,479.893,133.158,479.893,132.402z M480.346,131.798c-0.15,0-0.15,0.302-0.303,0.453
		C480.196,132.251,480.346,131.949,480.346,131.798z M481.555,130.135c-0.604,0.453-0.756,0.907-1.059,1.663
		C481.102,131.495,481.405,130.891,481.555,130.135z M481.708,129.832v-0.302c-0.152,0.151-0.152,0.302-0.152,0.604
		C481.708,129.984,481.708,129.984,481.708,129.832z M482.161,128.774c-0.152,0.151-0.453,0.454-0.453,0.756
		C481.858,129.229,482.161,129.076,482.161,128.774z M483.52,127.564c-0.756,0.303-1.057,0.605-1.359,1.21
		C482.764,128.774,483.067,128.32,483.52,127.564z M483.823,127.111c-0.15,0-0.303,0.303-0.303,0.453
		C483.672,127.564,483.823,127.263,483.823,127.111z M484.125,126.355c-0.15,0.151-0.303,0.303-0.303,0.605
		C484.125,126.809,484.125,126.658,484.125,126.355z M484.731,125.6c-0.303,0.151-0.605,0.453-0.605,0.756L484.731,125.6z
		 M484.881,125.146c-0.15,0.15-0.15,0.303-0.15,0.453C484.881,125.449,484.881,125.449,484.881,125.146z M485.184,124.693
		c-0.152,0-0.303,0.15-0.303,0.15C485.032,124.844,485.032,124.844,485.184,124.693z M485.788,123.938
		c-0.303,0.15-0.453,0.453-0.604,0.756C485.485,124.693,485.788,124.239,485.788,123.938z M486.543,122.576
		c-0.303,0.151-0.303,0.453-0.303,0.605C486.393,123.029,486.543,122.879,486.543,122.576z M486.846,121.82
		c-0.15,0.151-0.303,0.453-0.303,0.756C486.696,122.273,486.846,121.972,486.846,121.82z M487.752,120.46h-0.15v0.151
		C487.602,120.611,487.752,120.611,487.752,120.46z M488.208,119.553c-0.303,0.303-0.455,0.453-0.455,0.907
		C488.055,120.309,488.208,120.006,488.208,119.553z M489.264,118.494c-0.301,0-0.453,0.152-0.453,0.454
		C489.114,118.797,489.264,118.797,489.264,118.494z M489.417,117.891c-0.303,0-0.303,0.302-0.303,0.453
		C489.264,118.344,489.417,118.041,489.417,117.891z M490.323,116.228c-0.303,0.151-0.604,0.453-0.604,1.058
		C490.02,117.135,490.323,116.681,490.323,116.228z M490.625,115.623c-0.303,0.15-0.303,0.302-0.303,0.604
		C490.475,116.076,490.625,115.925,490.625,115.623z M491.834,114.111c-0.303,0-0.453,0.302-0.756,0.756L491.834,114.111z
		 M492.44,113.355l-0.453,0.604C492.288,113.809,492.44,113.657,492.44,113.355z M493.043,112.448c-0.301,0-0.453,0.453-0.453,0.907
		C492.893,113.204,493.043,113.053,493.043,112.448z M493.649,111.692c-0.453,0.302-0.453,0.453-0.605,0.756
		C493.346,112.146,493.649,111.844,493.649,111.692z M493.799,110.029c0.303-0.15,0.455-0.604,0.756-1.059
		C493.952,109.425,493.952,109.576,493.799,110.029z M494.555,108.971c0.152-0.15,0.303-0.15,0.303-0.302
		C494.858,108.82,494.708,108.82,494.555,108.971z M495.311,109.273c-0.15,0.151-0.453,0.453-0.453,0.605L495.311,109.273z
		 M495.161,108.367l0.453-0.605h-0.15C495.311,107.913,495.161,108.215,495.161,108.367z M496.067,108.669
		c0,0.151-0.15,0.151-0.301,0.302C495.917,108.82,496.067,108.82,496.067,108.669z"/>
	<path fill="#0A2D47" d="M534.309,71.33c0,0.151-0.152,0.454-0.453,0.605c-0.756,0.756-10.734,2.872-11.943,3.174l-10.732,2.721
		c-0.605,0-1.209,0.151-1.664,0.302c-0.604,0.151-1.057,0.454-1.209,1.058c0,0.604-0.453,1.36-0.756,1.814
		c-0.453,2.116-1.814,9.675-2.418,11.791l-1.814,7.408c-0.15,0.302-0.15,0.756-0.15,1.058c-0.756,2.721-1.059,5.441-1.814,8.163
		c-0.605,2.268-0.906,4.384-1.361,6.651c-0.604,3.779-2.418,12.244-3.023,16.175c0,0.454-0.301,0.907-0.301,1.36
		c0,0.756,0,1.512-0.152,2.117c-0.15,0.302-0.303,0.604-0.303,0.906c0,0.151,0,0.151,0,0.303c0,1.36-0.301,3.023-0.604,4.838
		c-0.303,1.662-1.209,3.325-1.209,4.988c0,0.15,0,0.15,0,0.303c0,0.453-0.152,0.906-0.455,1.209
		c-0.301,0.303-1.965,10.279-2.115,9.826c-0.605-0.303-0.908-0.454-1.512-0.605c-0.152,0-0.453-0.303-0.605-0.453
		c-0.303-0.303-0.756-0.605-1.059-0.605c-0.301-0.15-0.301-1.209-0.301-2.569c0-3.175,0.453-8.163,0.453-9.675
		c0-0.15,0-0.303,0-0.303c0.15-1.359,0.15-2.721,0.453-4.081c0-0.604,0-1.21,0-1.813c0-0.454,0-0.908,0.15-1.512l1.059-7.408
		c0-0.604,0.152-1.209,0.152-1.662c0.756-3.326,2.268-11.187,2.568-14.21l0.756-3.931v-0.15l0.908-6.803
		c0-0.152-0.303-0.303-0.303-0.303s0.15-0.151,0.15-0.303v-0.151c0.605-1.512,1.211-3.326,1.211-4.837c0-0.151,0-0.302,0-0.454
		c0.301-0.604,0.604-1.36,0.604-2.116c0.453-0.605,0.453-1.058,0.605-1.663c0-0.756,0.604-2.418,0.604-3.174
		c0.455-0.907,1.361-6.349,1.512-7.256c0-0.151,0-0.151,0-0.302c0-0.454-0.15-0.604-0.453-0.604h-0.15l-9.523,1.663
		c-0.152,0-0.455,0-0.605,0c-0.906,0-1.662-0.302-2.117-1.058c0-0.302-0.301-0.604-0.453-0.907c0-0.151,0-0.151,0-0.303
		c0-0.302,0.152-0.453,0.303-0.604c0-0.151,0.303-0.454,0.453-0.604c1.059-0.605,2.721-0.907,4.082-1.361
		c2.721-0.756,9.676-1.512,10.582-4.232c1.662-4.082,2.418-7.71,4.383-11.942c0.756-1.965,1.664-3.931,2.873-5.896
		c0.303-0.756,1.209-1.663,1.662-2.268c0.455-0.454,0.756-0.907,1.361-0.907c0.15,0,0.15,0,0.303,0c0.303,0,0.756,0.151,1.059,0.454
		c-0.303,0.151-0.303,0.302-0.455,0.454c0.152-0.151,0.303-0.302,0.455-0.302V53.19h0.301c0.152,0,0.152-0.151,0.303-0.151
		l0.152,0.151c0,0-0.152,0.151-0.152,0.302c-0.453,0.604-0.906,0.907-1.209,1.512c0.303-0.151,0.453-0.151,0.756-0.454
		c0.453-0.302,0.605-0.454,0.756-0.756c0.15-0.151,0.303-0.302,0.453-0.302c0.152,0,0.303,0.151,0.303,0.454
		c0.15,0.151,0.15,0.604,0.453,0.756c0.303,0,0.303,0.151,0.303,0.302s0,0.302,0,0.454c-0.303,0.907-0.453,1.663-0.906,2.57
		l-3.326,10.279c-0.605,1.814-0.756,2.721-1.512,4.535v0.454c0,0.302,0.15,0.454,0.453,0.454c0.15,0,0.15,0,0.303,0
		c0.604,0,1.209,0,1.965-0.151c2.418-0.302,7.559-2.268,20.711-3.326c0,0.454,0.756,0.604,0.906,0.756
		C534.157,71.028,534.309,71.179,534.309,71.33z"/>
	<path fill="#0A2D47" d="M560.307,115.925v0.151c-0.15,1.059-0.453,1.36-1.059,2.116c-2.721,3.023-4.988,6.651-7.859,10.128
		c-2.873,3.023-4.988,5.896-7.559,6.954c-1.512,0.604-2.42,0.907-3.326,0.907c-1.059,0-2.117-0.453-3.779-1.36
		c-0.453-0.151-0.605-0.454-0.756-0.454c-1.209-1.058-2.117-1.965-2.57-3.477c-0.15-0.906-0.303-1.814-0.303-2.872v-3.023
		c0-0.454,0-1.058,0.152-1.512c0-1.966,0.303-4.081,0.756-6.047c0.453-3.175,0.906-6.046,1.814-8.768
		c0.15-1.21,0.453-2.116,0.756-3.325c0.15-0.152,0.15-0.152,0.15-0.303c0-0.151-0.15-0.151-0.303-0.151h-0.15
		c-0.152,0.151-0.303,0.151-0.303,0.302c-1.209,0.908-2.117,1.966-3.023,3.176c-2.115,2.115-3.779,4.988-5.441,7.558
		c-1.512,2.116-3.023,4.384-4.232,6.803c-1.967,3.325-3.779,6.651-4.838,9.978c-0.605,1.662-1.059,3.174-1.361,4.686
		c0,0.303,0,0.756-0.15,0.907c-0.152,0.454-0.605,0.604-1.059,0.604c-0.303,0-0.605,0-0.906-0.303
		c-0.152-0.15-0.455-0.302-0.455-0.302h-0.301c-0.605,0-0.756-0.454-1.209-0.907c-0.303-0.15-1.059-0.303-1.361-0.604
		c-0.756-0.302-1.059-0.907-1.059-1.36c0-2.116,0.605-3.931,0.756-5.896c0.303-0.604,0.303-1.36,0.303-2.268
		c0-1.813,0.303-3.325,0.605-4.989v-0.604c0-2.42,0.756-4.535,0.756-7.257v-0.756c0-2.116,1.209-4.081,1.209-6.5
		c0-0.302,0-0.604,0.15-0.756c0.303-2.268,0.756-4.233,1.209-6.047c0.908-4.837,2.268-9.523,3.932-14.21
		c0.453-2.268,1.057-4.535,2.115-6.5c0.453-1.814,1.209-3.779,1.965-5.14c0.908-1.814,1.361-3.628,2.57-5.442
		c1.059-1.663,1.814-3.326,3.326-4.988c0.303-0.454,1.059-1.058,1.512-1.361c0.453-0.302,0.756-0.453,1.209-0.453
		c0.303,0,0.453,0.151,0.756,0.151c0.906,0.302,1.814,0.605,2.721,1.36c0.605,0.454,1.209,1.361,1.209,1.965
		c0,0.756-0.15,1.209-0.604,1.965c-0.605,2.116-1.512,4.233-2.42,6.5c-1.662,3.779-3.021,7.408-4.383,11.489
		c-1.361,2.721-2.57,5.593-3.779,8.616c-0.303,1.059-0.756,1.814-1.059,2.57c-0.604,1.511-0.906,3.023-1.209,4.535
		c-0.303,1.814-0.906,3.779-1.209,5.593c-0.453,2.873-1.209,5.744-1.512,8.466c0,0.453-0.303,1.058-0.303,1.36v1.059
		c0,0,0,0.15,0.15,0.15c0.152,0,0.455,0,0.455-0.15l0.301-0.303c2.268-3.628,4.688-7.105,7.408-10.279
		c1.965-2.419,4.232-4.838,6.65-6.652c0.303-0.151,0.605-0.453,0.908-0.756c0.303-0.302,0.906-0.302,1.359-0.302
		c2.57,0.302,4.535,1.209,4.838,3.931c0,0.453,0.152,0.906,0.152,1.512c0,0.604-0.152,1.209-0.152,1.814
		c-0.756,3.325-1.359,6.349-1.814,9.372l-0.604,4.534l-0.303,5.141c-0.303,1.814-0.303,3.779-0.303,5.896
		c0,0.151,0,0.604,0.152,0.604c0,0.303,0.301,0.303,0.453,0.303c1.059-0.454,2.115-1.21,3.174-1.814
		c1.664-1.36,3.932-3.628,6.35-6.047c1.662-1.965,3.627-3.93,5.291-6.197c0.453-0.756,1.512-1.814,2.268-3.023
		c0.303-0.151,0.604-0.303,0.906-0.303h0.152v0.604c0,0.151,0,0.303-0.152,0.454c-1.359,1.512-1.965,2.569-2.721,3.325
		c0,0.302-0.15,0.454-0.303,0.907c0.303-0.303,0.908-0.605,1.209-1.059c1.512-1.512,2.117-2.268,2.723-3.779
		c0-0.15,0.453-0.604,0.604-0.604v0.151c0,0.151,0,0.151,0.152,0.151c0.15,0.151,0.15,0.151,0.301,0.151h0.152
		C560.307,115.773,560.307,115.773,560.307,115.925z M519.946,125.751c-0.453,0.302-0.605,0.604-0.605,0.907v0.15h0.152
		C519.793,126.507,519.946,126.205,519.946,125.751z M519.643,123.785c0,0-0.15,0-0.15,0.152h0.15V123.785z M521.305,119.553
		l0.152,0.151c-0.152,0.151-0.152,0.302-0.152,0.604c-0.301,0.151-0.301,0.453-0.453,0.605h-0.15v0.15
		c-0.152,0.303-0.303,0.453-0.303,0.605l-0.605,1.209c0,0.303,0,0.604-0.15,0.906c0.15-0.15,0.303-0.453,0.453-0.453
		c1.059-1.512,1.965-3.174,2.873-4.686c0.15-0.303,0.15-0.454,0.15-0.605c0.303-0.15,0.453-0.453,0.605-0.604
		c0.453-0.604,1.059-1.209,1.209-2.268c0.303-0.151,0.303-0.453,0.453-0.756c0.605-0.302,1.209-0.907,1.209-1.36h-0.453
		c-0.15,0-0.303-0.151-0.303-0.151c-0.15,0-0.15,0.151-0.15,0.151v0.303c0,0.15-0.15,0.15-0.453,0.302v0.604
		c-0.152,0-0.152,0-0.303,0.151c-0.15,0-0.15-0.151-0.15-0.151l-0.152,0.151c-0.303,0.151-0.453,0.454-0.453,0.756l-0.15,0.151
		c0.15,0,0.15,0.151,0.15,0.151l-0.303,0.756c0,0.302-0.15,0.453-0.303,0.453h-0.453c-0.15,0.303-0.15,0.604-0.303,0.756
		c-0.15,0.151-0.301,0.454-0.453,0.454c0,0.15-0.15,0.15-0.15,0.15c0,0.151,0.15,0.303,0.15,0.303l-0.756,1.209H521.305z
		 M520.399,125.146c-0.453,0.15-0.453,0.303-0.453,0.604L520.399,125.146z M520.399,121.67l-0.15-0.152
		C520.249,121.67,520.249,121.67,520.399,121.67z M520.549,124.844l-0.15,0.151h0.15
		C520.702,124.844,520.549,124.844,520.549,124.844z M521.305,120.309c-0.15,0-0.15-0.15-0.301-0.15l0.15,0.15H521.305z
		 M521.458,123.029l-0.152,0.152v0.15C521.305,123.182,521.458,123.182,521.458,123.029z M522.061,122.426
		c-0.15,0-0.301,0.302-0.453,0.604L522.061,122.426z M522.213,122.123c0-0.151,0.15-0.303,0.15-0.453
		C522.213,121.82,522.213,121.972,522.213,122.123z M522.516,121.518l-0.152,0.152C522.364,121.67,522.516,121.67,522.516,121.518z
		 M522.667,121.367l-0.15,0.15C522.516,121.518,522.667,121.518,522.667,121.367z M532.19,69.516c0.152,0,0.756-1.209,0.756-1.814
		c0-0.151-0.15-0.302-0.303-0.302h-0.301c-1.211,0.454-9.373,26.455-9.223,26.303C523.272,93.552,532.04,69.516,532.19,69.516z
		 M524.631,117.891l-0.15,0.15C524.481,118.041,524.631,118.041,524.631,117.891z M524.934,117.437l-0.303,0.454
		C524.784,117.891,524.784,117.588,524.934,117.437z M525.54,116.529c-0.152,0.151-0.303,0.151-0.303,0.151
		c-0.152,0.151-0.152,0.303-0.152,0.454c0-0.151,0-0.151,0.152-0.303L525.54,116.529z M527.807,111.391h-0.303
		c-0.152,0-0.152-0.152-0.303-0.152s-0.303,0.152-0.303,0.152h-0.15l0.15,0.15c-0.15,0.303-0.303,0.604-0.303,0.907v0.604
		C527.352,112.6,527.807,112.146,527.807,111.391z M527.352,113.657c-0.15,0.151-0.15,0.303-0.15,0.303L527.352,113.657z
		 M527.807,113.506c-0.152,0-0.303,0-0.303,0.151C527.655,113.657,527.807,113.506,527.807,113.506z M528.411,110.332h-0.453v-0.151
		l-0.15,0.151v1.059C528.108,111.238,528.411,110.635,528.411,110.332z M528.411,112.297c-0.15,0.151-0.15,0.303-0.15,0.303
		l0.303-0.303H528.411z M528.563,109.879c-0.152,0.15-0.152,0.302-0.152,0.453c0.605-0.151,0.756-0.453,0.908-0.756
		C529.016,109.576,528.563,109.576,528.563,109.879z M528.563,112.146c0-0.151,0.15-0.151,0.15-0.453
		C528.563,111.994,528.563,111.994,528.563,112.146z M529.922,108.518l-0.604,0.303v0.756
		C529.469,109.425,529.922,108.971,529.922,108.518z M529.469,110.785c-0.15,0.151-0.15,0.303-0.15,0.453
		C529.319,111.238,529.469,110.937,529.469,110.785z M529.922,108.518c0.605-0.15,0.605-0.604,0.756-1.059h-0.303
		c-0.15,0-0.301-0.15-0.301-0.15c-0.152,0-0.152,0.15-0.152,0.15h-0.15c0,0.152,0.15,0.303,0.15,0.303V108.518z M530.528,65.283
		c0,0,0.15,0,0.15-0.151C530.528,65.132,530.528,65.283,530.528,65.283z M530.678,107.459c0.605-0.15,0.756-0.453,0.756-0.906
		C530.831,106.703,530.678,107.006,530.678,107.459z M531.131,108.82c-0.15,0.15-0.301,0.15-0.301,0.303
		C530.831,108.971,530.981,108.971,531.131,108.82z M531.284,66.039c-0.152,0-0.152,0-0.152,0.151L531.284,66.039z M531.887,107.913
		c-0.453,0.151-0.604,0.604-0.756,0.907C531.586,108.669,531.887,108.367,531.887,107.913z M531.284,64.981
		c0-0.151,0.15-0.151,0.303-0.302h-0.152C531.434,64.83,531.284,64.83,531.284,64.981z M531.586,65.586v0.151
		c0.453,0,0.604-0.302,0.604-0.756C531.887,65.132,531.586,65.283,531.586,65.586z M532.04,106.25
		c0.15-0.303,0.453-0.604,0.453-1.059C532.04,105.344,532.04,105.646,532.04,106.25z M532.946,106.553c0,0-0.303,0.15-0.453,0.303
		c-0.15,0.15-0.15,0.302-0.303,0.302c0.152,0,0.152-0.151,0.303-0.151C532.795,106.703,532.946,106.703,532.946,106.553z
		 M533.096,104.89c0.756-0.454,1.211-0.907,1.512-1.512C533.852,103.529,533.249,104.134,533.096,104.89z M533.852,105.494
		l-0.604,0.605C533.551,105.947,533.702,105.797,533.852,105.494z M534.307,105.191c-0.303,0-0.455,0.152-0.455,0.152v0.15
		C533.852,105.344,534.155,105.344,534.307,105.191z M534.608,104.89c-0.15,0.151-0.301,0.151-0.301,0.302
		c0,0,0.15-0.15,0.453-0.302H534.608z M534.76,103.076c-0.152,0.15-0.152,0.15-0.152,0.302L534.76,103.076z M535.667,103.529
		c-0.604,0.15-0.756,0.604-0.756,0.906C535.364,104.436,535.516,103.982,535.667,103.529z M535.667,102.471
		c0.303-0.15,0.303-0.303,0.453-0.303c0-0.15,0.152-0.302,0.152-0.302v-0.151c0,0.151-0.152,0.303-0.303,0.453
		C535.969,102.168,535.819,102.168,535.667,102.471z M535.667,103.529c0.303,0,0.303,0,0.453-0.151v-0.302
		c0,0.15-0.15,0.15-0.15,0.15C535.969,103.529,535.819,103.529,535.667,103.529z M550.331,126.053
		c-0.303,0.152-0.303,0.303-0.303,0.454C550.028,126.355,550.18,126.205,550.331,126.053z M550.633,127.717
		c0,0-0.152,0.15-0.303,0.15C550.633,127.867,550.633,127.867,550.633,127.717z M551.993,123.785
		c-0.604,0.605-0.756,1.059-1.209,1.664C551.54,124.693,551.842,124.391,551.993,123.785z M553.202,123.029
		c-0.604,0.303-1.209,0.454-1.209,0.756C552.749,123.785,553.051,123.483,553.202,123.029z M552.749,124.995
		c-0.303,0.151-0.756,0.454-0.756,0.756L552.749,124.995z M553.504,124.239h-0.303c-0.15,0.151-0.453,0.604-0.453,0.756
		C553.051,124.693,553.051,124.391,553.504,124.239z M554.413,121.367c-0.605,0.453-0.756,1.059-1.211,1.662
		C553.958,122.273,554.26,121.972,554.413,121.367z M553.807,123.332c-0.303,0.303-0.303,0.605-0.303,0.907
		C553.657,124.088,553.657,123.785,553.807,123.332z M555.016,122.273l-1.059,1.059
		C554.563,123.182,554.866,122.728,555.016,122.273z M555.016,120.611c-0.453,0.453-0.604,0.604-0.604,0.756
		C554.713,121.367,555.016,120.914,555.016,120.611z M555.469,121.367c-0.301,0.303-0.453,0.453-0.453,0.906
		C555.319,121.82,555.469,121.67,555.469,121.367z M556.225,120.46l-0.15,0.151v0.15
		C556.225,120.611,556.225,120.611,556.225,120.46z M557.889,118.948c-0.756,0.604-1.512,1.21-1.664,1.512
		C556.528,120.309,557.737,119.704,557.889,118.948z M558.04,118.646c0,0.15-0.15,0.15-0.15,0.302c0-0.151,0.15-0.151,0.303-0.151
		L558.04,118.646z"/>
	<path fill="#0A2D47" d="M564.083,103.227v-0.756c-0.303,0.151-0.604,0.605-0.604,1.209
		C563.78,103.378,563.932,103.227,564.083,103.227c-0.15,0.303-0.15,0.453-0.15,0.605c0,0.15,0,0.453,0.15,0.604
		c-1.814,3.326-3.326,6.501-4.383,10.129c-0.303,1.059-0.605,2.116-0.756,3.477c0.301-0.15,0.301-0.906,0.756-1.209
		c0.906-3.023,1.965-6.047,3.174-8.919c0.906-1.663,2.268-3.779,2.721-5.442c0.605-0.453,0.908-0.756,0.908-1.058
		c0.15-0.453,0.15-0.604,0.301-0.604c0.908,0,0.908,0.756,1.059,1.058v0.302c0,0,0.152-0.15,0.303-0.15s0.15-0.151,0.15-0.151
		c0.453,0,0.756,0.151,0.756,0.302c0,0.756-0.303,1.059-0.604,1.664c-0.605,2.115-1.361,4.232-2.268,6.349
		c-1.059,3.779-2.42,7.407-3.326,11.187c-0.605,2.57-1.209,5.291-1.209,8.163v2.268c0.15,0,0.303,0.151,0.453,0.151
		c0.453-0.151,1.059-0.303,1.361-0.756c1.965-1.814,3.93-3.477,5.895-5.744c2.268-2.42,4.232-4.838,6.5-6.652
		c1.664-2.268,3.477-4.081,5.291-6.047c2.42-2.418,4.535-4.988,6.5-7.406l0.756-1.059c0.303,0.453,0.303,1.059,0.453,1.512v0.303
		c0,0.302-0.15,0.756-0.15,1.058c-0.15,1.663-1.209,3.175-2.418,4.837c-0.605,0.303-1.209,0.605-1.361,1.059l-0.15,0.151
		c-1.965,1.813-3.176,3.477-4.688,5.442c-2.871,3.023-5.441,6.197-7.859,8.918c-0.908,1.512-2.117,2.873-3.023,4.082
		c-0.605,0.907-1.361,1.663-2.117,2.57l-2.268,2.116c-0.604,0.302-1.359,0.453-2.115,0.453c-0.605,0-1.059,0-1.664-0.151
		c-0.453-0.302-1.209-0.453-1.662-1.058c-0.756-0.303-1.512-0.604-2.117-1.059c-0.604-0.756-1.209-1.512-1.662-2.569
		c-0.605-1.512-1.059-3.175-1.059-4.838c0-3.477,0.303-6.803,1.361-10.128c0.301-2.419,0.756-4.535,1.813-6.803l2.873-5.745
		c0.756-1.512,1.965-2.872,3.023-4.383c0.15-0.454,0.906-0.454,1.059-0.454c0.15,0.454,0.15,0.605,0.303,0.756
		c0,0.151-0.152,0.302-0.152,0.454c0.152,0.151,0.152,0.604,0.152,0.604h0.301v0.302c0,0.151,0,0.151-0.15,0.303
		C565.141,102.622,564.838,103.076,564.083,103.227z M557.885,117.285c0-0.15,0-0.15,0.303-0.302c-0.303,0-0.303,0.151-0.303,0.151
		V117.285z M558.188,115.773c-0.152,0.303-0.152,0.454-0.152,0.605c0,0.15,0,0.302,0.152,0.453c0.15,0,0.301-0.151,0.301-0.303
		C558.489,116.379,558.338,116.076,558.188,115.773z M558.338,115.169c-0.15,0.151-0.15,0.151-0.15,0.604
		C558.338,115.623,558.338,115.472,558.338,115.169z M558.792,114.111c-0.15,0.15-0.15,0.302-0.15,1.058
		C558.792,115.018,558.792,114.413,558.792,114.111z M558.944,118.041c-0.152,0.151-0.152,0.303-0.152,0.453v0.605
		c0.152-0.151,0.152-0.303,0.152-0.453V118.041z M559.094,113.355c-0.15,0.15-0.15,0.15-0.15,0.302v0.454
		c0.15-0.151,0.301-0.303,0.301-0.454S559.094,113.506,559.094,113.355z M560.456,110.029c-0.756,0.907-1.211,1.965-1.361,3.326
		C559.7,112.297,560.456,111.541,560.456,110.029z M560.756,109.425c-0.301,0-0.301,0.302-0.301,0.604
		C560.606,109.879,560.756,109.576,560.756,109.425z M560.756,108.669v0.604c0,0,0.152,0,0.152-0.15
		C560.909,108.971,560.756,108.82,560.756,108.669z M562.571,105.344c-0.906,0.906-1.512,1.813-1.662,3.325
		C561.967,107.913,562.268,106.855,562.571,105.344z M563.176,104.588c-0.303,0.15-0.605,0.15-0.605,0.756
		C562.723,105.191,563.176,105.041,563.176,104.588z M563.479,103.68c-0.303,0.152-0.455,0.152-0.455,0.303
		c0,0.151,0.152,0.453,0.152,0.605C563.479,104.436,563.479,103.982,563.479,103.68z M564.991,101.413
		c-0.756,0.151-0.908,0.454-0.908,1.058c0.453-0.303,0.908-0.303,1.059-0.453C565.141,101.866,565.141,101.715,564.991,101.413z
		 M565.897,100.657c0,0,0,0.151,0.15,0.303c-0.453,0-0.604,0.151-0.756,0.302c0.152-0.151,0.152-0.302,0.455-0.454
		c0-0.151,0.301-0.302,0.301-0.454l0.152-0.151v0.151C566.047,100.506,565.897,100.506,565.897,100.657z M567.258,131.949
		c0,0.15-0.152,0.15-0.303,0.302c0,0-0.152,0.303-0.152,0.454c0-0.151,0.303-0.151,0.303-0.454
		C567.106,132.1,567.258,132.1,567.258,131.949z M568.467,130.74c-0.453,0.15-0.605,0.604-1.209,1.209
		C567.862,131.646,568.315,131.344,568.467,130.74z M574.211,88.866c-0.756,0.302-1.059,0.604-1.361,1.36
		c-0.303,0.303-0.453,0.605-0.453,1.059c0,0.302,0,0.453,0.15,0.756c-0.301,0.453-0.453,0.907-0.604,1.511
		c-0.453,0-0.605,0.151-0.756,0.151c-0.152,0-0.152-0.454-0.453-0.454v-0.454c-0.303-0.302-1.059-0.453-1.211-1.209
		c0-0.605-0.604-0.454-1.057-0.907c-0.453-0.151-0.453-0.454-0.453-0.756c0.15-1.663,0.604-3.023,1.965-4.082
		c0.15-0.302,0.604-0.302,0.906-0.302s0.453,0,0.605,0.151c0.453,0.151,1.359,0.453,1.662,0.756
		c0.605,0.302,1.059,1.058,1.512,1.512C574.362,88.11,574.362,88.714,574.211,88.866z M569.827,128.926
		c-0.453,0.15-0.756,0.303-0.906,1.209c0.756-0.453,0.906-0.604,0.906-0.906V128.926z M569.676,127.564
		c0-0.15,0.15-0.15,0.303-0.453v-0.15c0,0.15-0.152,0.15-0.152,0.15S569.676,127.414,569.676,127.564z M570.129,128.473
		c0,0.15-0.15,0.302-0.303,0.453h0.152C570.129,128.774,570.129,128.623,570.129,128.473z M571.036,127.564
		c-0.453,0.152-0.756,0.303-0.906,0.908C570.583,128.32,570.885,128.019,571.036,127.564z M570.28,87.354h0.303
		c-0.15-0.151-0.15-0.454-0.15-0.454c-0.152,0-0.152,0.151-0.152,0.303V87.354z M570.28,126.658
		c0.303-0.151,0.756-0.303,0.756-0.605c0-0.15-0.15-0.15-0.15-0.302C570.432,125.902,570.432,126.205,570.28,126.658z M571.792,86.9
		V86.75l-0.15,0.151h-0.453v-0.302c-0.605,0-0.605,0.151-0.756,0.302h0.453c-0.303,0.151-0.303,0.454-0.303,0.605
		c0.152,0.151,0.152,0.302,0.152,0.454C571.641,87.808,571.792,87.505,571.792,86.9z M570.885,125.6
		c0.15-0.15,0.303-0.15,0.453-0.15c0.152-0.152,0.152-0.303,0.303-0.303h-0.15L570.885,125.6z M572.094,125.902l-0.604,1.209
		C571.792,126.809,571.944,126.507,572.094,125.902z M572.397,125.449h-0.15v0.15C572.247,125.6,572.397,125.6,572.397,125.449z
		 M572.397,124.088c0-0.15,0.15-0.15,0.303-0.303v-0.15l-0.152,0.15C572.547,123.938,572.397,123.938,572.397,124.088z
		 M573.456,124.541c-0.453,0.303-0.908,0.454-1.059,0.908C572.85,125.297,573.303,125.146,573.456,124.541z M573.153,123.029
		c0,0,0,0.152,0.15,0.152v-0.303C573.153,122.879,573.153,123.029,573.153,123.029z M573.303,122.879
		c0.152-0.151,0.455-0.151,0.455-0.151c0-0.151,0.15-0.454,0.301-0.604c-0.15,0-0.15,0.15-0.301,0.15
		c-0.303,0.303-0.303,0.454-0.455,0.454V122.879z M573.909,124.391l-0.15-0.151c-0.152,0-0.152,0.151-0.303,0.302h0.15
		C573.606,124.541,573.758,124.541,573.909,124.391z M574.815,123.182c-0.453,0.302-0.906,0.604-0.906,1.209
		C574.362,124.239,574.665,123.785,574.815,123.182z M574.059,122.123c0.455-0.151,0.908-0.605,1.211-1.059
		C574.815,121.216,574.362,121.367,574.059,122.123z M575.42,122.273c-0.15,0.454-0.303,0.605-0.303,0.605
		c-0.15,0-0.303,0.15-0.303,0.303c0.152,0,0-0.152,0.303-0.152c0-0.15,0.152-0.302,0.303-0.302V122.273z M576.026,121.367
		c0,0.15-0.152,0.15-0.303,0.303C575.874,121.518,576.026,121.518,576.026,121.367z M577.688,119.553h-0.15
		c0,0.303,0,0.303-0.152,0.453c0.152-0.15,0.152-0.15,0.303-0.15V119.553z M578.747,117.135c0-0.151,0.303-0.454,0.453-0.454v-0.151
		l-0.453,0.454V117.135z M580.862,114.867c-0.604,0.15-0.906,0.302-0.906,0.756l-0.15,0.453
		C580.258,115.773,580.561,115.472,580.862,114.867z M580.561,116.681c-0.152,0-0.152,0.151-0.303,0.151
		c-0.152,0.303-0.152,0.453-0.303,0.453c0.15,0,0.303-0.15,0.303-0.15L580.561,116.681z M581.014,116.076
		c-0.303,0-0.303,0.151-0.453,0.303L581.014,116.076z M581.618,114.111l-0.15,0.15C581.467,114.262,581.618,114.262,581.618,114.111
		z M581.467,115.32c0-0.151,0.15-0.151,0.453-0.303C581.618,115.169,581.467,115.169,581.467,115.32z M582.374,112.901l-0.453,0.454
		v0.453c0.303-0.151,0.303-0.151,0.303-0.303C582.223,113.355,582.374,113.204,582.374,112.901z M582.979,113.96
		c-0.453,0.151-0.605,0.453-1.059,1.058C582.676,114.867,582.829,114.564,582.979,113.96z M584.793,110.937
		c-0.453,0.151-0.908,0.454-1.512,1.209C584.038,111.994,584.34,111.692,584.793,110.937z M586.153,108.971
		c-0.453,0.303-0.756,0.454-0.756,0.908c-0.15,0.15-0.15,0.15-0.15,0.302C585.7,110.029,586.002,109.727,586.153,108.971z
		 M586.153,110.635c-0.453,0.15-0.756,0.453-0.906,0.906c0.453-0.15,0.906-0.303,0.906-0.756V110.635z M587.514,107.309
		c-0.453,0.303-0.756,0.756-0.906,1.36C587.061,108.367,587.364,108.064,587.514,107.309z M587.364,109.123
		c-0.303,0.15-0.303,0.302-0.303,0.302L587.364,109.123z M587.967,108.367c-0.303,0.15-0.453,0.302-0.453,0.302
		c0.15,0,0.15-0.151,0.453-0.151V108.367z M588.573,105.797c-0.455,0.15-0.605,0.303-0.756,0.604v0.604
		C588.27,106.855,588.573,106.25,588.573,105.797z"/>
	<path fill="#0A2D47" d="M635.885,110.029c0.453,0,0.604,0.605,1.059,0.756c0.15,0,0.15,0.303,0.15,0.453
		c-0.303,0.907-0.453,1.814-0.906,2.57c-3.023,4.988-5.896,9.675-9.223,14.361c-1.209,1.814-2.871,3.779-4.232,5.896l-4.082,3.628
		c-1.813,1.059-3.174,1.662-4.686,1.662c-1.059,0-2.115-0.302-3.326-0.906c-2.268-1.059-4.383-2.721-5.744-4.988
		c-0.906-1.512-1.359-3.175-1.512-4.838c0-0.756-0.15-1.662-0.15-2.418c-0.152-0.454-0.152-0.908-0.152-1.21
		c0.455-4.989,1.361-10.128,2.723-14.966c0.301-0.906,0.906-1.965,0.906-3.023v-0.303c-1.059,0.303-0.906,1.21-1.209,2.117
		l-5.744,10.128c-1.664,3.023-3.326,5.896-5.291,8.616c-1.059,1.512-2.42,2.873-3.779,4.385c-0.756,1.058-2.117,1.662-3.176,2.116
		c-0.301,0.151-0.604,0.151-0.906,0.151c-0.453,0-1.059-0.151-1.662-0.303c-1.664-0.604-2.873-2.116-4.385-3.477
		c-1.059-0.756-1.662-2.117-1.662-3.326c0-0.303,0.15-0.453,0.15-0.756c0-0.604-0.15-1.36-0.15-1.965
		c0-3.023,0.604-5.744,1.512-8.314c0.604-2.419,1.662-4.838,2.568-7.105c1.512-2.871,3.176-5.441,5.141-8.011
		c0.303-0.454,0.453-0.907,0.756-1.059c1.059-1.512,2.268-2.116,3.477-3.023c0.453-0.303,0.756-0.454,1.209-0.454
		c0.303,0,0.756-0.151,1.211-0.151c2.266,0,5.139,1.058,7.104,3.023c0.605,0.604,0.908,1.512,1.209,2.268
		c0,0.151,0.152,0.454,0.152,0.756c0,0.453-0.152,0.756-0.453,1.058c-0.152,0.151-0.303,0.302-0.455,0.302
		c-0.15,0-0.453-0.15-0.756-0.302l-2.418-1.814c-0.303-0.302-0.453-0.302-0.605-0.302c-0.15,0-0.301,0-0.453,0.151l-1.814,1.664
		c-1.359,1.512-2.418,3.174-3.627,4.837c-2.117,3.931-3.629,8.012-4.988,12.245c-0.756,1.512-1.059,3.325-1.361,4.837
		c-0.15,0.454-0.15,1.21-0.15,1.663c0,0.15,0.15,0.453,0.303,0.604h0.15c0.15,0,0.303,0,0.453-0.151
		c2.57-2.418,4.988-5.291,6.955-8.617c3.174-4.534,6.348-9.069,9.371-13.756c1.814-3.023,4.385-6.349,6.5-9.372l2.873-4.082
		c0.453-0.605,0.605-0.907,0.906-0.907c0.152,0,0.605,0.151,1.059,0.302c0.605,0.302,1.512,0.605,1.965,0.907
		c0.605,0.604,1.059,1.209,1.059,1.965c0,0.303-0.15,0.605-0.15,0.907l-1.664,5.14c-1.662,5.442-3.324,11.036-4.686,16.629
		c-0.453,2.419-1.059,4.837-1.361,7.558c-0.15,1.664-0.301,3.176-0.301,4.838c0,1.209,0.15,2.268,0.15,3.477
		c0,1.21,0.303,1.966,0.756,2.873c0.453,0.756,1.209,1.058,1.965,1.058h0.453c0.455-0.151,1.059-0.151,1.512-0.453
		c1.059-1.059,2.268-1.814,3.176-3.023c2.721-3.023,5.744-6.198,8.012-9.978c2.268-3.023,4.232-6.047,6.35-9.221
		c0.604-0.756,0.906-1.814,1.209-2.721l1.057-0.908c0.152-0.15,0.303-0.15,0.455-0.15c0.15,0,0.301,0,0.453,0.15
		c0.303,0.152,0.15,0.303,0.303,0.454C635.583,110.029,635.733,110.029,635.885,110.029z M589.022,105.494l-0.604,0.453
		c-2.42,3.629-4.232,8.164-5.443,12.547c-0.15,0.454-0.301,0.908-0.301,1.361c0,0.303,0,0.453,0.15,0.756
		c-0.453,0.15-0.605,0.604-0.605,0.906c0,0.152,0.152,0.303,0.152,0.454s-0.152,0.151-0.152,0.302c-0.15,0,0,0.152,0,0.152
		c0-0.152,0.152-0.303,0.152-0.454c0.453-0.302,0.453-0.907,0.453-1.512c0.453-0.151,0.453-0.604,0.756-1.36
		c1.209-4.082,2.721-8.012,4.838-11.641c0.303-0.453,0.453-1.359,0.756-1.965c0.604-0.15,0.906-0.906,1.209-1.662
		C589.477,104.134,589.022,104.588,589.022,105.494z M582.825,116.228c0,0.151-0.15,0.151-0.15,0.302
		C582.674,116.529,582.825,116.379,582.825,116.228z M583.43,113.96c0-0.151,0.15-0.303,0.15-0.454c-0.15,0-0.303,0.151-0.303,0.303
		L583.43,113.96z M586.604,115.169c0.15,0,0.15-0.302,0.303-0.453L586.604,115.169z M587.663,113.053
		c-0.152,0.303-0.303,0.604-0.303,0.907C587.663,113.809,587.663,113.506,587.663,113.053z M587.965,112.6v-0.454
		c-0.303,0.303-0.303,0.604-0.303,0.907C587.965,112.901,587.965,112.75,587.965,112.6z M588.872,110.937
		c-0.756,0.151-0.906,0.604-0.906,1.209C588.569,111.844,588.721,111.541,588.872,110.937z M589.174,110.029
		c-0.303,0.151-0.303,0.453-0.303,0.907C589.174,110.785,589.174,110.332,589.174,110.029z M590.081,107.913
		c-0.604,0.302-0.906,0.907-0.906,1.663v0.453C589.778,109.576,590.081,108.971,590.081,107.913z M590.081,107.913
		c0.605-0.302,0.756-0.454,0.756-0.907v-0.453c0.605-0.151,0.908-0.605,0.908-1.209c-0.605,0.15-0.756,0.604-0.908,1.058
		C590.383,106.703,590.081,107.309,590.081,107.913z M590.989,102.471c-0.303,0.151-0.605,0.605-0.605,1.059v0.303
		C590.686,103.529,590.989,103.227,590.989,102.471z M592.954,103.68c-0.605,0.152-0.908,0.454-0.908,1.059
		C592.5,104.588,592.954,104.285,592.954,103.68z M628.629,121.216c-0.152,0.151-0.303,0.454-0.303,0.604L628.629,121.216z
		 M631.5,117.135c-0.301,0.15-0.301,0.302-0.453,0.453c0.152-0.151,0.303-0.151,0.303-0.303L631.5,117.135z M633.165,113.96
		c0.303-0.151,0.453-0.151,0.453-0.303c-0.15,0-0.303,0.151-0.303,0.151L633.165,113.96z M634.071,113.053
		c0,0.151-0.15,0.303-0.303,0.303c0.152,0,0.152,0,0.303-0.151V113.053z M634.827,110.635v0.302c0-0.151,0.15-0.151,0.15-0.302
		H634.827z"/>
</g>
<rect x="378.071" y="65.79" fill="#FBEEE8" width="107.861" height="21.358"/>
<g>
	<path fill="#37335E" d="M389.913,80.188c0.613,0,1.141-0.103,1.582-0.309c0.443-0.206,0.905-0.535,1.387-0.987l1.146,1.176
		c-1.115,1.236-2.47,1.854-4.063,1.854s-2.914-0.513-3.964-1.538s-1.575-2.321-1.575-3.889c0-1.567,0.535-2.874,1.605-3.919
		c1.07-1.045,2.422-1.567,4.055-1.567s2.996,0.603,4.092,1.809l-1.131,1.236c-0.502-0.482-0.977-0.819-1.424-1.01
		c-0.447-0.19-0.973-0.286-1.575-0.286c-1.065,0-1.96,0.344-2.683,1.032c-0.724,0.688-1.086,1.568-1.086,2.638
		c0,1.07,0.359,1.965,1.078,2.683C388.077,79.829,388.928,80.188,389.913,80.188z"/>
	<path fill="#37335E" d="M408.436,80.346c-1.064,1.04-2.381,1.56-3.948,1.56s-2.884-0.52-3.949-1.56s-1.598-2.336-1.598-3.889
		c0-1.552,0.532-2.849,1.598-3.889s2.382-1.56,3.949-1.56s2.884,0.52,3.948,1.56c1.065,1.04,1.598,2.336,1.598,3.889
		C410.034,78.01,409.501,79.306,408.436,80.346z M407.133,73.752c-0.719-0.743-1.601-1.115-2.646-1.115
		c-1.046,0-1.927,0.372-2.646,1.115c-0.719,0.744-1.078,1.646-1.078,2.706c0,1.061,0.359,1.962,1.078,2.706s1.6,1.115,2.646,1.115
		c1.045,0,1.927-0.372,2.646-1.115c0.718-0.744,1.077-1.645,1.077-2.706C408.21,75.397,407.851,74.496,407.133,73.752z"/>
	<path fill="#37335E" d="M423.811,71.265h1.778v10.536h-1.929l-5.969-7.687v7.687h-1.779V71.265h1.779l6.119,7.868V71.265z"/>
	<path fill="#37335E" d="M436.14,72.893v8.908h-1.778v-8.908h-3.195v-1.628h8.169v1.628H436.14z"/>
	<path fill="#37335E" d="M445.56,79.404l-1.056,2.396h-1.898l4.643-10.536h1.898l4.643,10.536h-1.898l-1.056-2.396H445.56z
		 M450.112,77.761l-1.914-4.341l-1.914,4.341H450.112z"/>
	<path fill="#37335E" d="M463.708,80.188c0.612,0,1.141-0.103,1.582-0.309c0.442-0.206,0.904-0.535,1.387-0.987l1.146,1.176
		c-1.115,1.236-2.47,1.854-4.062,1.854c-1.594,0-2.914-0.513-3.965-1.538c-1.05-1.025-1.574-2.321-1.574-3.889
		c0-1.567,0.535-2.874,1.605-3.919c1.069-1.045,2.421-1.567,4.054-1.567s2.997,0.603,4.093,1.809l-1.131,1.236
		c-0.502-0.482-0.978-0.819-1.424-1.01c-0.447-0.19-0.973-0.286-1.576-0.286c-1.064,0-1.959,0.344-2.682,1.032
		c-0.725,0.688-1.086,1.568-1.086,2.638c0,1.07,0.359,1.965,1.078,2.683C461.871,79.829,462.722,80.188,463.708,80.188z"/>
	<path fill="#37335E" d="M477.62,72.893v8.908h-1.779v-8.908h-3.195v-1.628h8.17v1.628H477.62z"/>
</g>
</svg>
