<?xml version="1.0" encoding="utf-8"?>
<!-- Generator: Adobe Illustrator 16.0.0, SVG Export Plug-In . SVG Version: 6.00 Build 0)  -->
<!DOCTYPE svg PUBLIC "-//W3C//DTD SVG 1.1//EN" "http://www.w3.org/Graphics/SVG/1.1/DTD/svg11.dtd">
<svg version="1.1" id="Layer_1" xmlns="http://www.w3.org/2000/svg" xmlns:xlink="http://www.w3.org/1999/xlink" x="0px" y="0px"
	 width="960px" height="231.188px" viewBox="0 0 960 231.188" enable-background="new 0 0 960 231.188" xml:space="preserve">
<rect fill="#FFFFFF" width="959.098" height="231.188"/>
<g>
	<path fill="#0A2D47" d="M372.773,155.033c-3.023,4.687-6.651,9.222-10.884,13.303c-2.57,2.722-4.988,4.989-7.71,6.803l-7.559,5.594
		c-3.175,2.116-5.744,3.779-8.919,5.291c-3.023,1.36-5.896,2.418-8.919,3.325c-1.21,0.303-2.419,0.453-3.628,0.453
		c-2.116,0-4.232-0.453-6.35-1.058c-1.209-0.604-2.871-1.209-3.779-1.965c-2.871-1.814-5.139-4.535-6.803-7.559
		c-1.511-3.478-2.115-6.803-2.721-10.582c0-1.663-0.15-3.023-0.15-4.535c-0.151-1.512-0.151-3.023-0.151-4.535v-1.965
		c0.151-1.966,0.302-3.931,0.604-5.745c1.059-5.896,2.418-11.64,4.232-17.232c1.361-4.384,3.023-8.769,4.988-13.152
		c1.21-3.325,2.873-6.651,4.838-9.675c2.268-4.081,4.687-8.465,7.709-12.093c1.059-1.361,2.268-3.175,3.326-4.385
		c0.453-0.453,0.756-0.906,1.209-1.209c2.57-2.268,4.535-4.988,7.559-6.803c2.722-2.268,5.442-3.779,8.164-5.14
		c1.662-0.604,3.174-0.907,4.837-0.907c1.813,0,3.779,0.454,5.442,1.21c3.326,1.662,5.291,4.384,6.197,8.012
		c0.454,1.059,0.605,1.814,0.605,2.721v2.268c0,4.535-1.512,8.919-2.722,13.454c-2.116,5.594-4.687,11.035-7.71,16.024l-4.535,7.407
		c-1.058,0.756-1.813,1.662-2.115,2.569c-0.454,0.454-0.908,0.604-1.21,0.604s-0.453-0.15-0.756-0.453
		c-0.151-0.303-0.756-0.453-0.907-0.907c-0.302-0.151-1.058,0-1.058-0.604c0-0.453,0.302-0.756,0.756-1.059
		c3.175-6.197,6.198-12.244,8.919-18.744c1.965-4.838,3.779-10.129,4.838-15.117c0.302-2.116,0.756-4.232,0.756-6.349
		c0-1.361-0.152-2.722-0.605-4.082c0-0.453-0.15-0.756-0.15-0.907c0-0.756-0.605-1.058-1.059-1.058
		c-0.605,0-1.209-0.151-1.814-0.151c-1.209,0-2.418,0.302-3.477,0.756c-2.268,1.209-4.535,2.268-6.5,3.628
		c-1.663,1.512-3.477,2.419-4.838,3.931l-4.686,5.14c-3.326,3.93-6.35,9.07-8.769,13.756c-2.419,4.082-4.384,8.163-6.349,12.547
		c-1.059,2.57-1.965,5.291-2.721,8.013c-0.454,0.906-0.908,1.813-1.059,2.872c-1.209,3.477-2.117,7.256-2.721,11.035
		c-0.152,1.814-0.605,3.931-0.756,5.593c-0.152,1.361-0.605,2.873-0.605,3.931c-0.15,1.21-0.303,2.57-0.303,3.779
		c0,2.116,0.303,4.232,0.454,6.5c0,2.722,0.604,5.745,1.36,8.163c0.453,2.419,1.361,4.384,2.873,6.35
		c0.906,1.36,2.268,2.268,3.627,2.569c0.756,0,1.361,0.151,1.966,0.303c1.512-0.151,3.175-0.604,4.384-1.209
		c4.988-1.814,9.523-4.535,14.361-7.105c2.569-1.813,5.593-3.325,8.162-5.896c1.512-0.907,2.57-2.116,4.082-3.325
		c4.687-3.931,9.978-8.769,13.454-13.152c5.745-6.349,7.407-8.768,8.919-8.768c0.303,0,0.605-0.151,0.907-0.151
		s0.604,0.151,0.907,0.907C376.552,149.289,375.041,152.313,372.773,155.033z M310.945,143.545c0,0,0.151,0,0.151-0.151
		c0,0-0.151-0.151-0.151-0.303V143.545z M311.399,138.103v-0.604h-0.152v0.604H311.399z M311.399,140.975
		c0,0.303,0,0.303,0.15,0.303c0-0.151,0.303-1.059,0.303-1.512c-0.303,0.302-0.453,0.453-0.453,0.756V140.975z M312.305,137.498
		c-0.15,0.604-0.15,1.512-0.453,2.268c0.303-0.151,0.453-0.303,0.453-0.454c0.453-1.813,0.907-3.628,1.663-5.744
		c0-0.303,0-0.907,0.302-1.209c-0.302,0.15-0.604,0.453-0.906,0.906C313.061,134.626,312.608,135.835,312.305,137.498z
		 M312.305,134.323h0.303l-0.303-0.303V134.323z M313.667,130.242c-0.152,0.15-0.303,0.15-0.303,0.15L313.667,130.242z
		 M314.27,128.881c0,0.151-0.302,0.151-0.302,0.454v0.453c0.151-0.151,0.302-0.302,0.302-0.453V128.881z M323.34,109.985h0.151
		c-0.755,1.965-1.511,3.93-3.022,5.441c-0.303,1.059-0.303,1.663-0.605,2.117c-1.965,3.93-3.93,8.313-5.14,12.698
		c-0.302,0.756-0.454,1.209-0.454,2.116c0.756-0.756,0.756-1.36,1.059-2.419c2.721-7.559,5.896-14.663,10.129-21.164
		c2.115-3.325,4.383-6.803,6.65-9.977c0.454-0.303,0.605-0.907,1.059-1.36c0.756-0.907,1.663-1.361,2.117-2.117
		c0.302-0.453,0.302-0.906,0.604-1.209c-1.209,0.756-2.268,1.814-3.023,3.175l-1.813,1.512c-0.604,1.209-1.36,2.268-2.569,3.325
		c-0.152,0.907-0.454,1.21-0.908,1.21c-0.15,0.906-0.604,2.116-1.511,2.418v-0.604l-0.454,0.604h0.454
		c-0.454,1.21-0.756,2.419-1.966,3.326v-1.209c-0.453,0.302-0.453,0.906-0.453,1.209C323.492,109.229,323.34,109.683,323.34,109.985
		z M314.875,127.823v-0.604c-0.151,0.15-0.151,0.15-0.151,0.453C314.724,127.672,314.724,127.823,314.875,127.823z M315.026,127.067
		c0.454-0.303,0.454-0.907,0.454-1.21c-0.454,0.151-0.454,0.454-0.454,0.756V127.067z M315.48,125.857
		c0.454-0.302,0.454-1.058,0.454-1.512C315.631,124.648,315.631,125.253,315.48,125.857z M316.84,122.229v0.151
		c0,0,0-0.151,0.151-0.151H316.84z M317.596,120.718c-0.453,0.303-0.453,0.756-0.453,1.21
		C317.446,121.776,317.446,121.172,317.596,120.718z M317.596,120.718c0.303-0.302,0.303-0.604,0.453-1.058
		C317.748,119.962,317.596,120.265,317.596,120.718z M318.049,119.66c0,0,0.152,0,0.152-0.454v-0.15c0,0.15-0.152,0.15-0.152,0.15
		V119.66z M318.655,117.694v0.151c0.15,0,0.15-0.151,0.303-0.151H318.655z M319.411,117.393c0-0.151,0.15-0.454,0.303-0.756
		C319.411,116.938,319.411,117.09,319.411,117.393z M319.864,116.032c0,0.15-0.15,0.453-0.15,0.604
		C319.713,116.637,319.713,116.334,319.864,116.032z M319.864,116.032c0-0.151,0-0.454,0.151-0.605
		C319.864,115.578,319.864,115.729,319.864,116.032z M320.015,115.427h0.454c0,0-0.152-0.15-0.152-0.302L320.015,115.427z
		 M324.096,109.078l-0.604,0.907c0-0.151,0-0.454,0.151-0.907H324.096z M323.946,114.369c-0.303,0.151-0.303,0.453-0.303,0.756
		C323.794,114.822,323.794,114.521,323.946,114.369z M323.946,114.369c0.453-0.454,0.604-0.907,1.058-1.059
		C324.399,113.462,324.096,113.915,323.946,114.369z M324.248,107.869c0.303,0,0.303-0.303,0.303-0.605
		C324.399,107.566,324.399,107.869,324.248,107.869z M325.155,113.009v-0.151c0,0.151-0.151,0.302-0.151,0.453
		C325.003,113.159,325.155,113.159,325.155,113.009z M326.213,110.59c-0.454,0.151-0.454,0.453-0.454,0.756
		C326.062,111.043,326.062,110.741,326.213,110.59z M326.969,109.683c-0.605,0.151-0.756,0.454-0.756,0.907
		C326.364,110.137,326.515,109.834,326.969,109.683z M327.422,108.775c-0.303,0.151-0.303,0.454-0.453,0.907
		C327.422,109.531,327.422,109.078,327.422,108.775z M328.027,107.264c-0.454,0.303-0.454,0.605-0.604,1.512
		C327.875,108.171,328.027,107.869,328.027,107.264z M328.934,106.206c-0.605,0.151-0.756,0.604-0.907,1.058
		C328.631,106.962,328.934,106.659,328.934,106.206z M329.84,105.147c-0.756,0.151-0.906,0.604-0.906,1.059
		C329.387,106.055,329.84,105.602,329.84,105.147z M330.294,103.938c-0.302,0.151-0.302,0.453-0.454,1.209
		C330.294,104.392,330.294,104.24,330.294,103.938z M331.202,102.427c-0.605,0.453-0.756,0.907-0.907,1.512
		C331.05,103.484,331.202,103.334,331.202,102.427z M331.05,98.799c-0.151,0-0.302-0.151-0.302-0.151
		c-0.152,0-0.152,0.151-0.152,0.151H331.05z M332.864,100.612c-0.906,0.454-1.512,1.059-1.662,1.814
		C332.26,102.124,332.562,101.671,332.864,100.612z M336.04,96.38c-0.756,0.453-1.361,1.209-1.966,2.419
		c-0.604,0.453-1.21,0.907-1.21,1.813c0.605-0.302,1.21-0.906,1.512-1.813c0.756-0.454,1.512-1.36,1.814-2.419H336.04z
		 M336.04,93.961l0.302-0.302c0,0,0.151-0.151,0.151-0.454l-0.303,0.454C336.19,93.81,336.19,93.81,336.04,93.961z M336.946,95.927
		l0.303-0.454c0.453-0.151,1.059-0.756,1.36-1.36c-0.756,0-1.21,0.604-1.512,1.36C337.097,95.624,336.946,95.775,336.946,95.927z
		 M347.075,131.148c0.453-0.15,0.604-0.453,0.756-0.756L347.075,131.148z M348.586,128.881c-0.303,0.151-0.454,0.454-0.454,0.907
		L348.586,128.881z M349.04,128.125c-0.453,0.151-0.453,0.454-0.453,0.756C348.888,128.579,348.888,128.428,349.04,128.125z
		 M349.946,127.067c-0.453,0.151-0.906,0.453-0.906,1.058C349.795,127.975,349.946,127.369,349.946,127.067z M351.76,121.322
		c-0.303,0.303-0.303,0.303-0.303,0.454s0,0.302,0.303,0.453c-0.303,0.303-0.453,0.756-0.604,1.21v-0.151l-0.907,1.813
		c-0.15,0.605-0.303,1.21-0.303,1.663c0-0.151,0.303-0.453,0.605-0.604l1.965-3.477c0.151-0.454,0.151-0.907,0.151-1.361
		c-0.151,0-0.302,0-0.454,0.151c-0.15,0.303-0.15,0.604-0.453,0.907V121.322z M351.61,126.916c0-0.151,0.15-0.453,0.15-0.756
		C351.61,126.312,351.61,126.613,351.61,126.916z M352.213,121.021c-0.15,0.151-0.302,0.302-0.453,0.302h0.453V121.021z
		 M352.667,121.322c0.454-0.15,0.604-0.302,0.604-0.906C352.819,120.567,352.819,121.021,352.667,121.322z M353.725,119.509
		c-0.302,0.151-0.453,0.453-0.453,0.907C353.725,120.265,353.725,119.812,353.725,119.509z M353.725,119.509
		c0.908-0.604,1.059-1.512,1.059-2.268C354.028,117.694,353.877,118.45,353.725,119.509z M354.784,117.241
		c0.151-0.151,0.303-0.303,0.303-0.756C354.784,116.788,354.784,117.09,354.784,117.241z M355.389,115.578v0.604
		c0.453-0.302,0.453-0.906,0.453-1.36C355.389,114.974,355.389,115.276,355.389,115.578z M355.993,114.521c0,0-0.15,0.15-0.15,0.302
		c0,0,0.15-0.151,0.303-0.151C356.145,114.521,355.993,114.521,355.993,114.521z"/>
	<path fill="#0A2D47" d="M384.862,173.93c-1.209-0.151-2.721-0.454-4.082-1.059l-1.662-0.453c-1.361-0.454-2.57-0.907-3.628-1.814
		c-1.36-1.058-2.268-2.268-2.419-3.628c0-1.058-0.303-1.663-0.303-2.268c-0.15-0.151-0.15-0.151-0.15-0.302c0-0.454,0-1.059,0-1.512
		c0-0.454,0-0.907,0.15-1.512c-0.15-0.303-0.302-0.605-0.302-0.756c0-0.151,0.151-0.303,0.151-0.454c0-0.302,0.15-0.906,0.15-1.36
		c0.303-0.151,0.303-0.302,0.303-0.453l0.453-3.175c0-0.604,0.151-1.059,0.303-1.663c0-0.756,0.151-1.36,0.151-1.813
		c0.453-1.663,1.058-3.478,1.663-4.838c0.302-1.209,0.906-2.116,1.058-3.325c0.303-0.303,0.303-0.605,0.454-1.059
		c0,0,0-0.151,0.15-0.303c1.059-1.662,1.965-3.477,2.873-4.988c0.906-1.058,1.813-2.419,2.569-3.477l1.21-0.907
		c0.453-0.453,1.058-0.604,1.813-0.604c0.454,0,0.907,0.151,1.21,0.302h0.756c0.453,0,0.756,0.151,1.359,0.454
		c0,0,0.152,0.151,0.454,0.302c0.151,0.151,0.151,0.454,0.151,0.756v0.303c-0.907,0.756-1.209,1.814-1.814,2.57
		c-0.756,1.965-1.965,3.93-2.721,5.593c-0.453,0.907-0.605,2.268-1.059,3.175c-0.453,1.813-1.059,3.779-1.814,5.441
		c0,0.756-0.15,1.512-0.15,2.57c-0.453,1.36-0.453,2.721-0.907,4.232l-0.454,5.14c-0.15,0.303-0.15,0.454-0.15,0.756
		c0,0.303,0,0.454,0.15,0.756c0,0.303,0,0.756,0,1.059c0,0.756,0,1.512,0.454,2.268c0,0.604,0.454,1.209,0.604,1.663l0.605,0.453
		c0.453,0.303,0.906,0.604,1.209,0.604s0.604,0,1.059-0.453c0.453-0.303,1.058-0.604,1.512-1.059
		c1.512-1.813,2.871-3.93,3.779-6.047l1.662-3.628c0.453-1.058,1.059-2.569,1.209-3.93c0.151-0.756,0.454-1.361,0.605-2.268v-0.756
		c0-0.303-0.151-0.454-0.756-0.605c-1.059-0.302-1.965-1.058-2.873-1.511l-0.756-0.605c-0.453-0.15-0.756-0.756-0.756-1.209
		c0-0.151,0-0.453,0.152-0.604v-0.454c0.302-1.662,1.813-2.721,3.779-3.477c0.604-0.303,1.359-0.303,2.115-0.303
		c0.605,0,0.756,0.151,0.907,0.151c0.604,0,0.907,0.151,1.36,0.303c1.059,0.604,1.361,1.209,1.512,1.965
		c0.151,0.756,0.303,1.21,0.605,1.814c-0.152,0.151-0.152,0.453-0.152,0.604s0,0.151,0,0.303c0,0.453,0.152,0.453,0.605,0.453
		c1.814-0.453,3.477-0.756,5.291-1.059c1.36-0.302,2.57-0.756,3.628-1.36c1.21-0.453,1.966-0.907,2.872-1.36l1.209-0.907
		c0.151-0.302,0.454-0.453,0.907-0.453h0.454c0,0.151,0,0.151,0.15,0.151h0.303c0,0.302,0.151,0.302,0.151,0.302
		c0.151,0,0.151-0.302,0.302-0.302h0.303c0.151,0,0.303,0.302,0.303,0.453v0.303c0,0,0,0.15,0.302,0.15l0.151-0.15
		c0.151-0.151,0.303-0.151,0.453-0.151c0.151,0,0.303,0.151,0.303,0.302c0,0.151-0.151,0.151-0.151,0.303
		c-0.302,0.151-0.302,0.303-0.302,0.453c-0.303,0.151-0.454,0.303-0.605,0.605c-0.906,0.906-2.116,1.662-3.627,2.418
		c-1.361,0.907-3.023,1.512-4.535,1.966c-1.966,0.453-3.779,0.906-5.594,0.906c-0.605,0.151-1.512,0.151-2.117,0.151
		c-0.756,0.151-0.906,0.151-0.906,0.907c-0.453,1.814-0.453,3.477-1.361,5.291c-0.453,1.965-0.906,3.779-1.662,5.593
		c-0.907,1.814-1.512,3.629-2.721,5.291c-0.453,0.756-1.209,1.512-1.663,2.419c-1.21,1.36-3.478,2.419-5.745,2.419H384.862z
		 M381.838,138.556c-2.721,3.931-3.93,8.013-4.988,12.094c-0.453,0.907-0.453,1.663-0.604,2.721
		c-0.303,1.059-0.454,2.268-0.604,3.326c-0.151,0.453-0.303,1.059-0.303,1.36v1.965l0.303-0.604v-1.36
		c0.302-0.907,0.302-1.512,0.453-2.116v-1.209c0.453-1.361,0.756-3.023,1.209-4.535c0.453-2.116,1.209-4.082,2.117-6.198
		c0.453-1.814,1.662-4.081,3.023-5.896c0-0.303,0.15-0.604,0.15-0.907v-0.151c0,0.151-0.15,0.151-0.15,0.303
		C382.141,137.8,381.838,138.103,381.838,138.556z M385.467,134.172c-0.756,0.756-1.512,1.966-1.966,2.872
		c-2.419,3.779-3.931,7.861-5.14,11.942c-0.151,1.21-0.605,2.419-1.059,3.628c-0.453,1.663-0.453,3.023-0.756,4.233
		c-0.15,1.36-0.15,2.268-0.453,3.477v0.604l0.151,0.151v-0.151c0.302-0.756,0.453-1.813,0.453-2.569
		c0.454-1.36,0.604-2.419,0.756-3.628c0.454-2.419,1.058-4.687,1.966-7.105c0.453-2.268,1.662-4.837,2.721-6.954
		c1.36-2.116,2.116-4.081,3.477-6.046c0.151-0.151,0.303-0.454,0.303-0.605c0,0-0.151,0-0.151-0.15L385.467,134.172z
		 M382.594,137.044c0.303-0.302,1.059-0.756,1.059-1.209C383.047,136.138,382.594,136.591,382.594,137.044z M387.281,134.475
		c-0.151,0.302-0.302,0.604-0.604,0.907c-1.361,1.813-2.419,3.779-3.175,5.896v0.15c0,0.151,0,0.151,0.151,0.151v-0.151
		c1.209-2.418,2.268-4.384,3.779-6.5c0.303-0.151,0.303-0.151,0.303-0.302L387.281,134.475z M390.304,147.475h0.302
		c0-0.15,0-0.15-0.302-0.15V147.475z M390.304,167.127c0.604-0.453,0.756-0.756,0.907-1.36c1.965-2.722,2.872-6.047,3.93-9.07
		c0.151-0.303,0.151-0.453,0.151-0.756v-0.151l-0.302,0.151c-0.454,0.907-0.756,2.116-0.907,3.023
		c-0.907,2.268-1.813,4.687-3.175,6.803L390.304,167.127z M391.967,146.417h-0.453l-0.605,1.209c0,0.151,0.151,0.151,0.151,0.151
		h0.302L391.967,146.417z M391.665,163.045c-0.15,0-0.15,0.303-0.15,0.454C391.665,163.348,391.665,163.348,391.665,163.045z
		 M391.665,162.895c0.605-0.303,0.756-0.907,0.756-1.512C391.967,161.987,391.665,162.44,391.665,162.895z M392.118,167.43
		c0.303-0.303,0.303-0.454,0.605-0.907c0.906-1.663,1.662-3.478,2.268-5.291v-0.454h-0.151l-0.907,1.966
		c-0.453,1.36-1.209,2.872-1.965,4.687C392.118,167.43,392.118,167.58,392.118,167.43z M392.42,161.383
		c0.303-0.151,0.303-0.454,0.303-0.605C392.42,160.929,392.572,161.231,392.42,161.383z M392.874,160.476
		c-0.15,0.151-0.15,0.151-0.15,0.302c0.453-0.302,0.453-0.604,0.453-0.906C392.874,160.021,392.874,160.324,392.874,160.476z
		 M393.025,147.626c0.151,0,0.303-0.302,0.303-0.453h-0.151c-0.151,0.151-0.303,0.151-0.303,0.302L393.025,147.626z
		 M393.479,158.964c-0.151,0.151-0.303,0.303-0.303,0.453v0.454c0-0.151,0.151-0.151,0.303-0.303V158.964z M393.629,158.057
		c-0.15,0.151-0.15,0.303-0.15,0.454v0.453c0-0.151,0.15-0.151,0.15-0.303V158.057z M393.932,157.149h-0.151
		c0,0.454-0.151,0.605-0.151,0.907c0.151-0.302,0.303-0.453,0.303-0.756V157.149z"/>
	<path fill="#0A2D47" d="M468.456,143.695l-0.15,0.151c0,0.604-0.151,0.756-0.453,1.059c-1.21,1.058-2.268,2.268-3.326,3.931
		c-1.059,1.36-2.116,2.569-2.872,4.232c-1.663,2.721-3.175,5.593-5.291,8.616c-2.722,4.535-5.896,8.617-8.314,12.85
		c-1.36,0-2.721,1.965-3.779,3.628c-1.36,0.604-2.267,1.059-2.872,1.663c-0.453,0.302-1.059,0.604-1.512,0.604
		c-0.604,0-1.209-0.303-1.814-0.907c-1.209-0.302-0.906,0-1.662-0.604c-0.151-0.453-0.756-0.907-1.209-1.36
		c-0.756-0.907-1.512-2.268-1.814-3.175c-0.303-1.663-0.453-3.175-0.453-4.837c0.15-2.268,0.604-4.384,0.906-6.803l1.663-7.256
		c0-1.059,0.604-1.814,0.756-2.722l0.604-1.813c0.605-2.268,1.512-4.535,2.268-6.803l1.965-5.442v-0.453h-0.302
		c-0.151,0.302-0.302,0.302-0.454,0.302c-0.906,0.756-1.662,1.512-2.721,2.268c-1.209,1.512-2.57,2.872-3.93,4.687
		c-1.361,1.965-2.722,3.628-3.932,5.744c-2.721,4.687-5.744,10.129-9.069,14.814c-0.454,0.756-1.058,1.361-1.663,1.814
		c-0.604,0.604-1.36,0.907-1.965,0.907c-0.453,0-0.907,0-1.361-0.303c-0.756-0.453-1.512-0.907-2.115-1.813
		c-0.454-0.454-0.908-0.605-1.21-1.21c-0.454-0.907-1.058-1.663-1.36-2.721c-0.453-1.36-0.605-2.722-0.605-4.082
		c0-0.756,0.152-1.36,0.152-2.116s0.15-1.512,0.15-2.268c0-0.453-0.15-0.907-0.15-1.209c0-0.303-0.152-0.604-0.152-1.059
		c0-3.023,1.512-7.407,2.57-10.732c0.453-1.36,1.059-2.872,1.814-4.233c0.15-0.453,0.303-0.906,0.604-1.209l0.604-1.059
		c0.605-0.756,1.059-0.906,1.512-0.906c0.303,0,0.453,0,0.756,0.15c0.303,0,0.453,0.151,0.453,0.303s0,0.303-0.15,0.453
		c0,0.151,0.15,0.151,0.15,0.151v0.303c0-0.151,0-0.151,0.152-0.303c0.15,0,0.604-0.302,0.906-0.453h0.303v0.151
		c-0.151,0.15-0.453,0.604-0.453,0.906c0,0.151,0.15,0.151,0.302,0.303l0.756-0.453c0.151-0.303,0.151-0.454,0.302-0.454
		l0.303-0.302l0.151,0.15v0.605h0.302c0.152,0,0.303,0.15,0.303,0.302s-0.15,0.454-0.15,0.604c-0.303,0.454-0.454,0.907-0.605,1.361
		c0,0.15,0,0.15,0.151,0.302h0.151c0.15-0.453,0.453-0.907,0.756-1.209c0.15-0.151,0.453-0.151,0.453-0.151
		c0.453,0,0.453,0.151,0.453,0.453v1.512c0,0.303-0.15,0.605-0.302,1.059c-1.36,2.872-2.268,6.047-2.872,8.919
		c-0.453,1.512-0.605,3.175-0.756,5.14c-0.303,1.36-0.756,2.57-0.907,4.082c-0.151,0.604-0.151,1.058-0.151,1.662
		c0,0.303,0,0.604,0.151,0.756c0.302,0,0.454-0.151,0.756-0.302c0.151-0.454,0.454-0.604,0.604-0.907
		c1.361-1.814,2.721-4.082,4.082-6.047c1.512-2.419,2.872-4.535,4.535-6.651c1.965-2.57,3.93-5.14,6.349-7.256l4.081-3.931
		c0.454-0.453,1.059-0.756,1.512-1.059c0.454-0.302,0.908-0.453,1.361-0.453c0.303,0,0.604,0,0.756,0.151h0.604
		c1.058,0,2.116,0.302,3.023,1.209c0.604,0.604,1.058,1.512,1.058,2.722c-0.15,1.058-0.302,2.116-0.302,3.325
		c-0.454,3.175-1.059,6.198-1.966,9.07c-0.604,2.268-1.209,4.081-1.662,6.198c-0.453,1.813-1.209,4.081-1.512,5.896
		c-0.605,2.268-1.059,4.535-1.512,7.104c-0.453,1.512-0.453,3.175-0.605,4.988v0.605c0,0,0,0.15,0.152,0.15
		c0,0,0.15-0.15,0.302-0.15c0.604-0.303,0.907-0.303,1.21-0.303c1.209,0,1.813-1.209,2.569-1.814
		c2.116-2.872,4.534-5.593,6.198-8.616c3.325-4.535,6.5-9.07,9.221-13.756c1.512-1.361,2.419-3.326,3.779-4.838
		c1.209-0.756,1.965-1.965,2.872-3.023c0.151-0.151,0.454-0.303,0.604-0.303c0.151,0,0.151,0.151,0.303,0.151
		c0.303,0.303,0.453,0.604,0.756,0.604h0.15v0.756h0.152c0.15,0,0.15,0,0.302-0.15h0.151L468.456,143.695z M418.721,163.801v-0.302
		c0,0.151-0.15,0.302-0.15,0.302H418.721z M418.721,163.348l0.454-0.303c0.454-0.453,1.058-0.906,1.36-1.36
		c2.117-2.569,3.779-5.441,5.291-8.012s3.174-4.837,4.686-7.256l0.303-0.604c-0.604,0.15-0.906,0.604-1.209,1.209
		c-0.605,1.059-1.36,2.116-2.268,3.175l-0.604,0.906c-0.151,0.151-0.151,0.454-0.303,0.454c-1.813,3.175-3.628,6.349-5.744,9.07
		c-0.756,1.058-1.36,1.512-1.663,2.268L418.721,163.348z M428.85,150.801c-0.907,0.756-1.663,2.116-2.268,3.477
		c-0.453,0.303-0.756,0.604-0.756,1.059l-0.303,0.302c-1.662,3.023-3.93,6.198-5.744,8.919l-0.604,0.756
		c1.058-0.302,1.36-0.906,1.813-1.662c1.059-1.814,2.873-4.082,4.082-6.198c0.453-0.453,0.604-1.36,0.907-1.965
		c0.302-0.303,0.604-0.605,0.756-0.907c0.604-1.059,1.36-1.966,1.813-2.872C428.699,151.405,428.85,151.103,428.85,150.801z
		 M432.024,145.963c-0.604,0.151-0.756,0.605-1.058,1.361c-0.302,0.302-0.756,0.756-0.756,1.36
		c-0.454,0.151-0.604,0.604-0.907,1.058c-0.15,0.151-0.453,0.605-0.453,1.059c0.303-0.303,0.453-0.604,0.604-1.059
		c0.302-0.15,0.756-0.453,0.756-0.906c0.454-0.303,0.756-0.907,0.907-1.512C431.571,146.87,432.024,146.417,432.024,145.963z
		 M431.118,145.207c0.453-0.15,0.756-0.604,1.059-1.209C431.571,144.301,431.118,144.754,431.118,145.207z M433.536,143.847
		c-0.604,0.454-0.906,0.907-0.906,1.36C432.932,144.754,433.385,144.451,433.536,143.847z M433.083,142.638l0.303-0.303
		c0.15,0,0.15-0.151,0.15-0.151l0.152-0.15h-0.152c0,0.15-0.15,0.302-0.302,0.302C433.234,142.486,433.234,142.486,433.083,142.638z
		 M449.711,169.848c-0.907,0.303-1.209,0.756-1.361,1.512c-0.453,0.303-0.755,0.907-0.906,1.512
		c-0.756,0.454-1.36,1.663-2.268,1.663c-0.453,0-0.756,0.453-0.907,0.907l-0.604,0.907h0.151l1.663-1.814
		c0.906,0,1.662-0.303,1.965-1.512c0.604-0.303,0.756-1.059,1.059-1.663C449.106,171.058,449.258,170.452,449.711,169.848z
		 M444.269,174.534c0.604,0,1.059-0.303,1.512-1.059c1.966-2.418,3.779-4.988,5.745-7.709l5.291-8.012
		c0.453-1.059,0.906-2.268,1.662-2.873c0.605-0.906,1.209-1.965,1.663-3.023c0.454-0.453,0.907-1.209,1.36-1.965
		c1.059-0.907,1.663-1.813,2.116-2.721c0.303-0.151,0.454-0.454,0.454-0.907c-0.303,0.151-0.454,0.453-0.605,0.756
		c-0.15,0.303-0.302,0.303-0.756,0.453l-0.906,1.663c0,0.151-0.303,0.454-0.303,0.604c-0.15,0-0.303,0-0.303,0.151l-0.604,0.907
		h-0.152c-0.15,0.151-0.302,0.302-0.302,0.453s0,0.303-0.151,0.454h-0.303l-0.15-0.151l-0.151,0.151h-0.151
		c0.151,0.15,0.151,0.302,0.151,0.302c-0.151,0.151-0.151,0.604-0.302,0.756h0.15l-0.453,0.756
		c-0.151,0.151-0.303,0.454-0.453,0.454c0,0-0.152,0-0.303-0.151c-0.151,0.151-0.151,0.302-0.151,0.453v0.303l-0.151,0.302h0.151
		c-0.454,0.454-0.604,0.605-0.604,0.756c-0.151,0.151-0.303,0.454-0.303,0.605c0,0.302-0.15,0.453-0.453,0.906v-0.15l-0.151,0.15
		c-0.151,0.151-0.302,0.454-0.302,0.605c0,0-0.152,0-0.152,0.15c0,0,0.152,0,0.152,0.151l-0.454,0.604c0,0.151,0,0.605-0.302,0.756
		c-0.303,0.303-0.303,0.454-0.454,0.756l-0.151-0.151c0,0-0.15,0-0.15,0.151s-0.303,0.303-0.454,0.303l-0.151,0.151v0.302
		c0,0.303-0.15,0.454-0.303,0.454l-0.453,0.756l-0.303-0.303v0.151c0,0.302-0.15,0.453-0.302,0.604c0,0.303-0.151,0.453-0.454,0.756
		c-0.15,0.151-0.15,0.151-0.15,0.303c0,0.15-0.303,0.453-0.453,0.604h-0.152l-0.453,0.604c-0.15,0.303-0.15,0.756-0.303,0.907
		l-0.15,0.151l0.15,0.15c-0.15,0.303-0.15,0.454-0.453,0.605c0-0.151-0.15-0.151-0.15-0.151s-0.152,0-0.152,0.151
		c-0.15,0.15-0.302,0.302-0.302,0.604h0.302c-0.302,0.302-0.604,0.604-1.058,0.756v-0.151l-0.151,0.151
		c0,0.302-0.15,0.604-0.15,0.756s-0.152,0.151-0.152,0.151l0.152,0.15c-0.152,0.303-0.454,0.454-0.605,0.605
		c-0.302,0.453-0.453,0.906-0.906,0.906c0,0.303-0.303,0.604-0.756,0.756c0,0.454-0.151,0.907-0.605,1.21
		c-0.15,0.302-0.302,0.604-0.604,0.906C444.874,174.081,444.572,174.534,444.269,174.534z M445.629,172.569
		c0-0.151-0.15-0.151-0.15-0.151L445.629,172.569z M450.77,168.186c-0.605,0.302-0.756,0.906-1.059,1.662
		C450.467,169.546,450.77,168.941,450.77,168.186z M451.223,167.58c-0.151,0-0.151,0.303-0.303,0.454
		C451.072,168.034,451.223,167.731,451.223,167.58z M452.432,165.918c-0.604,0.453-0.756,0.906-1.059,1.662
		C451.979,167.278,452.282,166.674,452.432,165.918z M452.583,165.615v-0.303c-0.151,0.151-0.151,0.303-0.151,0.605
		C452.583,165.767,452.583,165.767,452.583,165.615z M453.038,164.557c-0.152,0.151-0.454,0.454-0.454,0.756
		C452.735,165.011,453.038,164.859,453.038,164.557z M454.397,163.348c-0.756,0.303-1.058,0.604-1.359,1.209
		C453.641,164.557,453.944,164.104,454.397,163.348z M454.7,162.895c-0.15,0-0.303,0.302-0.303,0.453
		C454.549,163.348,454.7,163.045,454.7,162.895z M455.002,162.139c-0.151,0.15-0.303,0.302-0.303,0.604
		C455.002,162.592,455.002,162.44,455.002,162.139z M455.607,161.383c-0.302,0.15-0.604,0.453-0.604,0.756L455.607,161.383z
		 M455.758,160.929c-0.151,0.151-0.151,0.303-0.151,0.454C455.758,161.231,455.758,161.231,455.758,160.929z M456.061,160.476
		c-0.152,0-0.303,0.151-0.303,0.151C455.909,160.627,455.909,160.627,456.061,160.476z M456.665,159.72
		c-0.302,0.151-0.453,0.453-0.604,0.756C456.363,160.476,456.665,160.021,456.665,159.72z M457.42,158.359
		c-0.302,0.151-0.302,0.453-0.302,0.604C457.27,158.813,457.42,158.661,457.42,158.359z M457.723,157.604
		c-0.15,0.151-0.303,0.453-0.303,0.756C457.573,158.057,457.723,157.755,457.723,157.604z M458.63,156.243h-0.151v0.15
		C458.479,156.394,458.63,156.394,458.63,156.243z M459.084,155.336c-0.303,0.302-0.454,0.453-0.454,0.907
		C458.932,156.092,459.084,155.789,459.084,155.336z M460.142,154.277c-0.302,0-0.454,0.151-0.454,0.454
		C459.991,154.58,460.142,154.58,460.142,154.277z M460.293,153.673c-0.303,0-0.303,0.303-0.303,0.453
		C460.142,154.126,460.293,153.824,460.293,153.673z M461.2,152.01c-0.302,0.151-0.604,0.454-0.604,1.059
		C460.898,152.917,461.2,152.464,461.2,152.01z M461.502,151.405c-0.303,0.151-0.303,0.303-0.303,0.604
		C461.352,151.858,461.502,151.708,461.502,151.405z M462.711,149.894c-0.302,0-0.453,0.303-0.756,0.756L462.711,149.894z
		 M463.317,149.138l-0.453,0.604C463.166,149.592,463.317,149.44,463.317,149.138z M463.921,148.23
		c-0.303,0-0.454,0.454-0.454,0.907C463.77,148.986,463.921,148.836,463.921,148.23z M464.526,147.475
		c-0.453,0.303-0.453,0.454-0.604,0.756C464.223,147.929,464.526,147.626,464.526,147.475z M464.677,145.813
		c0.302-0.151,0.453-0.605,0.756-1.059C464.829,145.207,464.829,145.358,464.677,145.813z M465.433,144.754
		c0.151-0.151,0.302-0.151,0.302-0.303C465.735,144.603,465.584,144.603,465.433,144.754z M466.189,145.057
		c-0.151,0.15-0.454,0.453-0.454,0.604L466.189,145.057z M466.038,144.149l0.453-0.604h-0.15
		C466.189,143.695,466.038,143.998,466.038,144.149z M466.945,144.451c0,0.151-0.151,0.151-0.303,0.303
		C466.793,144.603,466.945,144.603,466.945,144.451z"/>
	<path fill="#0A2D47" d="M520.303,143.695l-0.152,0.151c0,0.604-0.15,0.756-0.453,1.059c-1.209,1.058-2.268,2.268-3.324,3.931
		c-1.059,1.36-2.117,2.569-2.873,4.232c-1.662,2.721-3.174,5.593-5.291,8.616c-2.721,4.535-5.896,8.617-8.314,12.85
		c-1.361,0-2.721,1.965-3.779,3.628c-1.359,0.604-2.268,1.059-2.871,1.663c-0.455,0.302-1.059,0.604-1.512,0.604
		c-0.605,0-1.211-0.303-1.814-0.907c-1.209-0.302-0.908,0-1.664-0.604c-0.15-0.453-0.756-0.907-1.209-1.36
		c-0.756-0.907-1.512-2.268-1.814-3.175c-0.301-1.663-0.453-3.175-0.453-4.837c0.152-2.268,0.605-4.384,0.908-6.803l1.662-7.256
		c0-1.059,0.605-1.814,0.756-2.722l0.605-1.813c0.604-2.268,1.512-4.535,2.268-6.803l1.965-5.442v-0.453h-0.303
		c-0.15,0.302-0.303,0.302-0.453,0.302c-0.908,0.756-1.664,1.512-2.721,2.268c-1.211,1.512-2.57,2.872-3.932,4.687
		c-1.359,1.965-2.721,3.628-3.93,5.744c-2.721,4.687-5.744,10.129-9.07,14.814c-0.453,0.756-1.059,1.361-1.663,1.814
		c-0.604,0.604-1.36,0.907-1.965,0.907c-0.454,0-0.907,0-1.36-0.303c-0.756-0.453-1.512-0.907-2.117-1.813
		c-0.453-0.454-0.906-0.605-1.209-1.21c-0.453-0.907-1.059-1.663-1.36-2.721c-0.454-1.36-0.604-2.722-0.604-4.082
		c0-0.756,0.15-1.36,0.15-2.116s0.152-1.512,0.152-2.268c0-0.453-0.152-0.907-0.152-1.209c0-0.303-0.15-0.604-0.15-1.059
		c0-3.023,1.512-7.407,2.57-10.732c0.453-1.36,1.058-2.872,1.813-4.233c0.151-0.453,0.302-0.906,0.604-1.209l0.604-1.059
		c0.604-0.756,1.059-0.906,1.512-0.906c0.303,0,0.454,0,0.756,0.15c0.303,0,0.454,0.151,0.454,0.303s0,0.303-0.151,0.453
		c0,0.151,0.151,0.151,0.151,0.151v0.303c0-0.151,0-0.151,0.15-0.303c0.151,0,0.605-0.302,0.907-0.453h0.302v0.151
		c-0.15,0.15-0.453,0.604-0.453,0.906c0,0.151,0.151,0.151,0.303,0.303l0.756-0.453c0.15-0.303,0.15-0.454,0.303-0.454l0.302-0.302
		l0.151,0.15v0.605h0.303c0.15,0,0.302,0.15,0.302,0.302s-0.151,0.454-0.151,0.604c-0.303,0.454-0.453,0.907-0.604,1.361
		c0,0.15,0,0.15,0.151,0.302h0.15c0.152-0.453,0.454-0.907,0.756-1.209c0.152-0.151,0.454-0.151,0.454-0.151
		c0.454,0,0.454,0.151,0.454,0.453v1.512c0,0.303-0.152,0.605-0.303,1.059c-1.361,2.872-2.268,6.047-2.873,8.919
		c-0.453,1.512-0.604,3.175-0.756,5.14c-0.302,1.36-0.755,2.57-0.906,4.082c-0.151,0.604-0.151,1.058-0.151,1.662
		c0,0.303,0,0.604,0.151,0.756c0.303,0,0.453-0.151,0.756-0.302c0.15-0.454,0.453-0.604,0.604-0.907
		c1.36-1.814,2.722-4.082,4.081-6.047c1.512-2.419,2.873-4.535,4.535-6.651c1.965-2.57,3.932-5.14,6.35-7.256l4.082-3.931
		c0.453-0.453,1.059-0.756,1.512-1.059c0.453-0.302,0.906-0.453,1.359-0.453c0.303,0,0.605,0,0.756,0.151h0.605
		c1.059,0,2.117,0.302,3.023,1.209c0.604,0.604,1.059,1.512,1.059,2.722c-0.152,1.058-0.303,2.116-0.303,3.325
		c-0.453,3.175-1.059,6.198-1.965,9.07c-0.605,2.268-1.209,4.081-1.664,6.198c-0.453,1.813-1.209,4.081-1.512,5.896
		c-0.604,2.268-1.057,4.535-1.512,7.104c-0.453,1.512-0.453,3.175-0.604,4.988v0.605c0,0,0,0.15,0.15,0.15
		c0,0,0.152-0.15,0.303-0.15c0.605-0.303,0.906-0.303,1.209-0.303c1.209,0,1.814-1.209,2.57-1.814
		c2.117-2.872,4.535-5.593,6.197-8.616c3.326-4.535,6.5-9.07,9.223-13.756c1.512-1.361,2.418-3.326,3.779-4.838
		c1.209-0.756,1.965-1.965,2.871-3.023c0.15-0.151,0.453-0.303,0.605-0.303c0.15,0,0.15,0.151,0.301,0.151
		c0.303,0.303,0.455,0.604,0.756,0.604h0.152v0.756h0.15c0.152,0,0.152,0,0.303-0.15h0.15L520.303,143.695z M470.569,163.801v-0.302
		c0,0.151-0.151,0.302-0.151,0.302H470.569z M470.569,163.348l0.453-0.303c0.453-0.453,1.059-0.906,1.36-1.36
		c2.116-2.569,3.779-5.441,5.291-8.012s3.175-4.837,4.687-7.256l0.303-0.604c-0.605,0.15-0.908,0.604-1.211,1.209
		c-0.604,1.059-1.359,2.116-2.267,3.175l-0.604,0.906c-0.151,0.151-0.151,0.454-0.303,0.454c-1.814,3.175-3.628,6.349-5.744,9.07
		c-0.756,1.058-1.361,1.512-1.663,2.268L470.569,163.348z M480.696,150.801c-0.906,0.756-1.662,2.116-2.267,3.477
		c-0.454,0.303-0.756,0.604-0.756,1.059l-0.302,0.302c-1.664,3.023-3.932,6.198-5.745,8.919l-0.604,0.756
		c1.059-0.302,1.36-0.906,1.814-1.662c1.058-1.814,2.871-4.082,4.081-6.198c0.454-0.453,0.604-1.36,0.907-1.965
		c0.303-0.303,0.604-0.605,0.756-0.907c0.604-1.059,1.36-1.966,1.814-2.872C480.545,151.405,480.696,151.103,480.696,150.801z
		 M483.872,145.963c-0.605,0.151-0.756,0.605-1.059,1.361c-0.303,0.302-0.756,0.756-0.756,1.36
		c-0.453,0.151-0.605,0.604-0.906,1.058c-0.152,0.151-0.455,0.605-0.455,1.059c0.303-0.303,0.455-0.604,0.605-1.059
		c0.303-0.15,0.756-0.453,0.756-0.906c0.453-0.303,0.756-0.907,0.906-1.512C483.418,146.87,483.872,146.417,483.872,145.963z
		 M482.963,145.207c0.455-0.15,0.756-0.604,1.059-1.209C483.418,144.301,482.963,144.754,482.963,145.207z M485.383,143.847
		c-0.605,0.454-0.908,0.907-0.908,1.36C484.778,144.754,485.231,144.451,485.383,143.847z M484.93,142.638l0.301-0.303
		c0.152,0,0.152-0.151,0.152-0.151l0.15-0.15h-0.15c0,0.15-0.152,0.302-0.303,0.302C485.081,142.486,485.081,142.486,484.93,142.638
		z M501.557,169.848c-0.906,0.303-1.209,0.756-1.359,1.512c-0.453,0.303-0.756,0.907-0.908,1.512
		c-0.756,0.454-1.359,1.663-2.266,1.663c-0.455,0-0.756,0.453-0.908,0.907l-0.604,0.907h0.15l1.662-1.814
		c0.908,0,1.664-0.303,1.965-1.512c0.605-0.303,0.756-1.059,1.059-1.663C500.954,171.058,501.104,170.452,501.557,169.848z
		 M496.116,174.534c0.605,0,1.059-0.303,1.512-1.059c1.965-2.418,3.779-4.988,5.744-7.709l5.291-8.012
		c0.453-1.059,0.908-2.268,1.664-2.873c0.604-0.906,1.209-1.965,1.662-3.023c0.453-0.453,0.906-1.209,1.361-1.965
		c1.057-0.907,1.662-1.813,2.115-2.721c0.303-0.151,0.453-0.454,0.453-0.907c-0.301,0.151-0.453,0.453-0.604,0.756
		c-0.152,0.303-0.303,0.303-0.756,0.453l-0.908,1.663c0,0.151-0.301,0.454-0.301,0.604c-0.152,0-0.303,0-0.303,0.151l-0.605,0.907
		h-0.15c-0.152,0.151-0.303,0.302-0.303,0.453s0,0.303-0.15,0.454h-0.303l-0.152-0.151l-0.15,0.151h-0.15
		c0.15,0.15,0.15,0.302,0.15,0.302c-0.15,0.151-0.15,0.604-0.303,0.756h0.152l-0.455,0.756c-0.15,0.151-0.301,0.454-0.453,0.454
		c0,0-0.15,0-0.303-0.151c-0.15,0.151-0.15,0.302-0.15,0.453v0.303l-0.15,0.302h0.15c-0.453,0.454-0.605,0.605-0.605,0.756
		c-0.15,0.151-0.301,0.454-0.301,0.605c0,0.302-0.152,0.453-0.455,0.906v-0.15l-0.15,0.15c-0.15,0.151-0.303,0.454-0.303,0.605
		c0,0-0.15,0-0.15,0.15c0,0,0.15,0,0.15,0.151l-0.453,0.604c0,0.151,0,0.605-0.303,0.756c-0.303,0.303-0.303,0.454-0.453,0.756
		l-0.15-0.151c0,0-0.152,0-0.152,0.151s-0.303,0.303-0.453,0.303l-0.15,0.151v0.302c0,0.303-0.152,0.454-0.303,0.454l-0.453,0.756
		l-0.303-0.303v0.151c0,0.302-0.152,0.453-0.303,0.604c0,0.303-0.15,0.453-0.453,0.756c-0.152,0.151-0.152,0.151-0.152,0.303
		c0,0.15-0.301,0.453-0.453,0.604h-0.15l-0.453,0.604c-0.152,0.303-0.152,0.756-0.303,0.907l-0.152,0.151l0.152,0.15
		c-0.152,0.303-0.152,0.454-0.453,0.605c0-0.151-0.152-0.151-0.152-0.151s-0.15,0-0.15,0.151c-0.152,0.15-0.303,0.302-0.303,0.604
		h0.303c-0.303,0.302-0.605,0.604-1.059,0.756v-0.151l-0.15,0.151c0,0.302-0.152,0.604-0.152,0.756s-0.15,0.151-0.15,0.151
		l0.15,0.15c-0.15,0.303-0.453,0.454-0.604,0.605c-0.303,0.453-0.455,0.906-0.908,0.906c0,0.303-0.303,0.604-0.756,0.756
		c0,0.454-0.15,0.907-0.604,1.21c-0.152,0.302-0.303,0.604-0.605,0.906C496.721,174.081,496.418,174.534,496.116,174.534z
		 M497.477,172.569c0-0.151-0.152-0.151-0.152-0.151L497.477,172.569z M502.616,168.186c-0.604,0.302-0.756,0.906-1.059,1.662
		C502.313,169.546,502.616,168.941,502.616,168.186z M503.069,167.58c-0.15,0-0.15,0.303-0.301,0.454
		C502.918,168.034,503.069,167.731,503.069,167.58z M504.28,165.918c-0.605,0.453-0.756,0.906-1.059,1.662
		C503.825,167.278,504.127,166.674,504.28,165.918z M504.43,165.615v-0.303c-0.15,0.151-0.15,0.303-0.15,0.605
		C504.43,165.767,504.43,165.767,504.43,165.615z M504.883,164.557c-0.15,0.151-0.453,0.454-0.453,0.756
		C504.581,165.011,504.883,164.859,504.883,164.557z M506.245,163.348c-0.756,0.303-1.059,0.604-1.361,1.209
		C505.489,164.557,505.792,164.104,506.245,163.348z M506.547,162.895c-0.152,0-0.303,0.302-0.303,0.453
		C506.395,163.348,506.547,163.045,506.547,162.895z M506.848,162.139c-0.15,0.15-0.301,0.302-0.301,0.604
		C506.848,162.592,506.848,162.44,506.848,162.139z M507.454,161.383c-0.303,0.15-0.605,0.453-0.605,0.756L507.454,161.383z
		 M507.604,160.929c-0.15,0.151-0.15,0.303-0.15,0.454C507.604,161.231,507.604,161.231,507.604,160.929z M507.907,160.476
		c-0.15,0-0.303,0.151-0.303,0.151C507.756,160.627,507.756,160.627,507.907,160.476z M508.512,159.72
		c-0.303,0.151-0.453,0.453-0.605,0.756C508.209,160.476,508.512,160.021,508.512,159.72z M509.268,158.359
		c-0.303,0.151-0.303,0.453-0.303,0.604C509.116,158.813,509.268,158.661,509.268,158.359z M509.571,157.604
		c-0.152,0.151-0.303,0.453-0.303,0.756C509.418,158.057,509.571,157.755,509.571,157.604z M510.477,156.243h-0.15v0.15
		C510.327,156.394,510.477,156.394,510.477,156.243z M510.93,155.336c-0.303,0.302-0.453,0.453-0.453,0.907
		C510.78,156.092,510.93,155.789,510.93,155.336z M511.989,154.277c-0.303,0-0.453,0.151-0.453,0.454
		C511.838,154.58,511.989,154.58,511.989,154.277z M512.139,153.673c-0.301,0-0.301,0.303-0.301,0.453
		C511.989,154.126,512.139,153.824,512.139,153.673z M513.047,152.01c-0.303,0.151-0.605,0.454-0.605,1.059
		C512.745,152.917,513.047,152.464,513.047,152.01z M513.35,151.405c-0.303,0.151-0.303,0.303-0.303,0.604
		C513.198,151.858,513.35,151.708,513.35,151.405z M514.559,149.894c-0.303,0-0.453,0.303-0.756,0.756L514.559,149.894z
		 M515.163,149.138l-0.453,0.604C515.012,149.592,515.163,149.44,515.163,149.138z M515.768,148.23
		c-0.303,0-0.453,0.454-0.453,0.907C515.618,148.986,515.768,148.836,515.768,148.23z M516.374,147.475
		c-0.455,0.303-0.455,0.454-0.605,0.756C516.071,147.929,516.374,147.626,516.374,147.475z M516.524,145.813
		c0.303-0.151,0.453-0.605,0.756-1.059C516.674,145.207,516.674,145.358,516.524,145.813z M517.28,144.754
		c0.15-0.151,0.303-0.151,0.303-0.303C517.583,144.603,517.43,144.603,517.28,144.754z M518.036,145.057
		c-0.152,0.15-0.453,0.453-0.453,0.604L518.036,145.057z M517.883,144.149l0.455-0.604h-0.152
		C518.036,143.695,517.883,143.998,517.883,144.149z M518.792,144.451c0,0.151-0.152,0.151-0.303,0.303
		C518.639,144.603,518.792,144.603,518.792,144.451z"/>
	<path fill="#0A2D47" d="M550.381,148.685c0,6.651-7.105,11.791-7.105,12.698c0,0.15,0.15,0.15,0.303,0.15h0.15
		c-2.115,2.873-5.139,6.198-7.256,8.466c-2.721,2.721-6.047,4.988-9.826,6.047c-1.359,0.303-2.57,0.604-3.93,0.604
		c-1.965,0-3.779-0.453-5.443-1.663c-2.115-1.512-4.232-3.023-5.441-5.29c-0.604-1.059-0.906-2.117-1.059-3.326
		c-0.15-0.756-0.15-1.663-0.15-2.57c0-0.906,0-1.662,0.15-2.569v-3.628c0.303-1.814,0.756-3.478,1.211-5.14v-0.907
		c0-0.151,0.15-0.303,0.15-0.454c0-0.15-0.15-0.453-0.15-0.604c0-0.15-0.152-0.15-0.152-0.302l0.453-0.604
		c0.455-0.303,0.756-0.756,1.059-1.21c0.908-1.813,1.664-3.779,2.721-5.593c1.361-2.268,2.873-4.384,4.688-6.35
		c1.209-1.512,2.568-2.721,4.232-3.779c0.756-0.604,1.662-1.058,2.721-1.209c0.756-0.151,1.512-0.151,2.117-0.151
		c1.662,0,3.324,0.303,4.988,1.209c1.813,1.059,2.871,2.57,2.871,4.687c0,0.151,0,0.303,0,0.454
		c-0.15,1.662-0.604,3.022-1.359,4.534c-1.209,2.419-2.57,4.687-4.838,6.35c-2.57,1.965-5.291,3.477-8.164,4.232l-1.662,0.454
		c-0.756,0.15-1.209,0.604-1.512,1.36l-1.512,11.64c0,0.151,0,0.454,0,0.604c0,1.059,0.303,2.117,0.605,3.175
		c0.15,0.907,0.756,1.36,1.813,1.36h1.211c2.721-0.604,5.592-1.512,8.012-3.174c2.418-1.663,4.686-3.478,6.803-5.745
		c1.209-1.209,3.93-3.174,5.291-4.686c1.813-2.268,3.477-4.233,4.988-6.501c0.906-1.512,1.965-3.325,2.721-4.837
		C550.229,147.173,550.381,147.929,550.381,148.685z M516.67,146.87c0.15,0,0.15-0.151,0.303-0.302c-0.152,0-0.152,0.15-0.303,0.15
		V146.87z M517.879,144.451c-0.453,0.454-0.756,1.059-0.906,1.966C517.577,145.963,517.879,145.207,517.879,144.451z
		 M525.288,136.591v-0.604l-0.455,0.302c-0.453,0.454-1.057,0.907-1.512,1.512c-1.813,2.117-3.324,4.687-4.686,7.257
		c-0.453,0.906-0.756,1.813-1.059,3.023l0.756-1.059c0.303-0.453,0.605-1.209,1.059-1.663
		C521.053,142.335,522.868,139.312,525.288,136.591z M517.879,144.451c0.453-0.15,0.605-0.453,0.605-0.756
		C518.03,143.847,518.03,144.149,517.879,144.451z M518.485,143.695c0.604-0.604,1.209-1.512,1.512-2.418
		c0.15-0.151,0.301-0.454,0.301-0.756c-0.301,0.15-0.453,0.453-0.453,0.756C518.938,141.882,518.635,142.638,518.485,143.695z
		 M520.297,140.521c0.605-0.151,0.908-0.604,0.908-1.21C520.752,139.614,520.45,139.917,520.297,140.521z M521.809,138.556
		c-0.453,0.151-0.453,0.454-0.453,0.756L521.809,138.556z M522.264,138.103c0.15-0.151,0.301-0.453,0.301-0.756L522.264,138.103z
		 M522.565,143.394c0.152-0.151,0.152-0.303,0.152-0.454c0,0.151-0.152,0.151-0.152,0.303V143.394z M523.321,142.184
		c-0.15,0.151-0.301,0.303-0.453,0.756C523.321,142.789,523.321,142.486,523.321,142.184z M530.879,136.742
		c-1.057,0.604-1.813,1.512-2.721,2.268c-1.965,2.418-3.326,4.988-4.686,7.709c-0.152,0.151-0.152,0.303-0.152,0.454v0.151
		c0,0.15,0.152,0.302,0.455,0.302c0.756-0.453,1.359-0.604,1.965-1.058c2.268-1.814,4.232-3.779,5.441-6.35
		c0.605-1.058,1.059-2.116,1.209-3.325v-0.151c0-0.303-0.301-0.454-0.604-0.454h-0.303L530.879,136.742z M527.555,136.742
		c-0.152,0-0.303,0-0.455,0.151c-1.512,1.512-3.023,3.174-3.779,5.29c0.303-0.15,0.455-0.302,0.605-0.604
		c1.209-1.512,2.57-3.023,3.629-4.535V136.742z M532.09,141.73c-0.152,0.303-0.303,0.453-0.303,0.756h0.303
		c-0.303,0.453-0.455,1.059-0.605,1.512c-0.15,0.303-0.605,0.453-0.756,0.756v0.151c0.15,0,0.15,0.151,0.15,0
		c0.303-0.151,0.455-0.454,0.756-0.756c0.756-0.604,1.211-1.512,1.664-2.268c0.303-0.454,0.303-0.907,0.453-1.36
		c-0.605,0-0.453,0.756-0.906,0.906c-0.152,0.151-0.303,0.151-0.303,0.303c-0.152,0-0.152,0-0.152-0.151c0,0,0-0.151,0-0.302
		C532.391,141.428,532.241,141.579,532.09,141.73z M532.241,145.661c-0.15,0-0.303,0.151-0.303,0.151
		S532.09,145.813,532.241,145.661z M532.543,145.358c0.604-0.302,1.209-1.209,1.359-1.965
		C533.147,143.695,532.694,144.451,532.543,145.358z M533.903,143.242c0.152,0,0.152-0.151,0.303-0.151c0-0.151,0-0.151,0.152-0.302
		C534.055,142.939,534.055,143.091,533.903,143.242z M538.135,164.104c0.152-0.151,1.059-0.604,1.211-0.907l-1.361,0.907v0.151
		L538.135,164.104z M539.95,164.255l-0.453,0.453c0.15-0.151,0.453-0.302,0.605-0.302
		C540.102,164.255,539.95,164.255,539.95,164.255z M540.403,161.987c-0.15,0.151-0.301,0.453-0.301,0.756L540.403,161.987z
		 M541.008,163.045c-0.303,0.151-0.453,0.303-0.453,0.756C540.858,163.65,541.008,163.499,541.008,163.045z M541.614,162.44
		c-0.152,0.151-0.455,0.303-0.605,0.604C541.311,162.895,541.461,162.743,541.614,162.44z M542.217,160.021
		c-0.604,0.454-0.906,0.605-1.059,1.361C541.764,161.231,541.915,160.777,542.217,160.021z M542.67,161.231
		c-0.453,0.302-0.906,0.604-1.057,1.209C542.217,162.139,542.37,161.836,542.67,161.231z M543.426,158.661
		c-0.604,0.303-0.906,0.756-1.209,1.36C542.823,159.871,543.125,159.417,543.426,158.661z M543.276,160.324
		c-0.15,0.151-0.303,0.303-0.453,0.756L543.276,160.324z M544.334,157.604c-0.453,0.151-0.756,0.453-0.908,1.058
		C543.881,158.511,544.334,158.057,544.334,157.604z M546.149,155.185c-0.756,0.604-1.211,1.36-1.814,2.268
		C545.241,157.149,545.694,156.243,546.149,155.185z M545.393,157.755c-0.152,0.15-0.455,0.453-0.455,0.756L545.393,157.755z
		 M545.543,157.604c0.15-0.151,0.453-0.454,0.453-0.756L545.543,157.604z M546.149,155.185c0.301-0.151,0.301-0.453,0.453-0.756
		h-0.303l-0.15,0.151V155.185z M546.602,154.429c0.453-0.151,0.604-0.303,0.604-0.756h-0.453L546.602,154.429z M547.206,153.37
		v0.303c0.605-0.604,1.211-1.209,1.211-2.116C547.811,152.161,547.358,152.614,547.206,153.37z M549.02,151.103
		c0-0.15-0.15-0.15-0.303-0.302v-0.151h-0.15l0.15,0.151c0,0.302,0,0.453-0.301,0.756C548.87,151.405,549.02,151.254,549.02,151.103
		z"/>
	<path fill="#0A2D47" d="M585.6,141.126c0.453,0,0.756,0.302,1.059,0.453v0.907l-1.814,3.477
		c-4.535,6.803-9.826,13.001-15.117,18.896c-1.662,2.116-3.629,4.232-5.896,6.198c-3.023,2.721-5.895,4.988-9.674,6.349
		c-1.059,0.303-1.965,0.604-3.023,0.604c-0.756,0-1.512-0.15-2.268-0.453c-2.57-1.36-4.686-3.175-5.896-5.744
		c-0.756-1.814-0.906-3.779-1.057-5.745c0.15-0.906,0.15-1.813,0.15-2.721l0.453-2.116c0.152-1.21,0.303-2.419,0.605-3.628
		c0.756-2.722,1.814-5.442,3.023-8.163l2.418-4.384c1.662-3.023,3.779-5.745,6.047-8.314c1.059-1.36,2.418-2.116,3.779-3.023
		c0.453-0.454,1.209-0.604,1.814-0.604c0.604-0.151,1.359-0.151,1.965-0.151c1.361,0,2.57,0.302,3.779,0.756
		c1.814,0.756,3.023,2.268,3.93,4.081l0.756,1.966v1.36c0,0.302-0.604,0.604-0.906,0.604c-0.605-0.151-1.059-0.303-1.512-0.756
		c-0.756-0.756-1.662-1.36-2.268-2.268c0-0.151,0-0.302-0.15-0.453c-0.303-0.303-0.756-0.604-1.059-0.604s-0.453,0.15-0.756,0.302
		c-1.059,0.454-1.965,1.21-2.873,2.116c-3.023,2.872-4.988,6.501-6.803,10.129c-1.209,2.418-2.115,4.988-3.174,7.559
		c-0.605,1.965-1.361,3.93-1.664,6.046c0,0.454-0.301,0.907-0.301,1.361c-0.152,1.058-0.303,2.116-0.303,3.023
		c0,1.36,0.15,2.569,0.453,3.93v0.303c0.303,0.453,0.453,0.604,0.906,0.604h0.455l1.209-0.453c4.686-1.663,8.768-4.384,12.094-7.71
		l5.139-5.442c3.176-3.628,6.955-7.709,9.826-11.942l4.838-6.349c0.303-0.454,0.605-0.604,0.756-0.604
		c0.303,0,0.303,0.302,0.605,0.756C585.297,141.126,585.448,141.126,585.6,141.126z M547.354,151.858c0,0.151,0,0.151,0.15,0.151
		C547.504,151.858,547.354,151.858,547.354,151.858z M548.11,150.952v-0.303c-0.303,0.303-0.303,0.604-0.453,0.907
		C547.959,151.405,548.11,151.254,548.11,150.952z M557.028,138.556c-0.301,0.151-0.604,0.303-0.906,0.605l-2.117,2.569
		c-2.568,3.477-4.383,7.407-6.045,11.338v0.453c0,0,0,0.151,0.15,0.151c0,0,0.15,0,0.15-0.151c0.152-0.453,0.605-0.907,0.756-1.36
		c1.512-3.325,3.326-6.803,5.594-9.826l1.965-2.872L557.028,138.556z M549.319,148.382c-0.756,0.604-1.059,1.21-1.059,1.966
		C548.866,149.894,549.168,149.289,549.319,148.382z M550.225,146.417c-0.453,0.453-0.906,1.058-0.906,1.663v0.302
		C549.924,147.929,550.075,147.324,550.225,146.417z M550.831,145.661c-0.605,0.151-0.605,0.453-0.605,0.756
		C550.528,146.266,550.68,145.963,550.831,145.661z M550.831,145.661c0.303-0.151,0.303-0.454,0.303-0.756
		C550.831,145.057,550.831,145.358,550.831,145.661z M551.737,144.149c-0.301,0.151-0.604,0.453-0.604,0.756
		C551.436,144.754,551.586,144.451,551.737,144.149z M551.737,144.149c0.303-0.303,0.303-0.454,0.303-0.756
		C551.737,143.545,551.737,143.847,551.737,144.149z M552.192,143.242c0.301-0.151,0.453-0.453,0.453-0.756
		C552.342,142.638,552.192,142.939,552.192,143.242z M552.645,142.486c0.303-0.151,0.453-0.453,0.453-0.756L552.645,142.486z
		 M553.098,148.08c0-0.151,0.15-0.303,0.15-0.454c0,0.151-0.15,0.151-0.301,0.303L553.098,148.08z M557.18,141.126
		c-1.361,1.663-2.57,3.628-3.629,5.593c-0.15,0.303-0.303,0.605-0.303,0.907c0.152-0.302,0.605-0.453,0.756-0.756
		c1.059-1.965,2.42-3.931,3.932-5.744c0-0.151,0-0.303,0.15-0.604l1.059-1.059v-0.151l-0.15-0.15
		c-0.455,0.302-0.756,0.756-1.059,1.209C557.633,140.672,557.331,140.823,557.18,141.126z M569.877,161.08
		c-0.604,0.151-0.906,0.604-1.059,1.209C569.274,161.987,569.727,161.533,569.877,161.08z M570.331,162.289
		c0,0.151-0.15,0.151-0.15,0.303c0-0.151,0.15-0.151,0.303-0.303H570.331z M570.786,160.021c-0.303,0.151-0.303,0.454-0.455,0.605
		C570.633,160.476,570.786,160.324,570.786,160.021z M571.995,158.057c-0.453,0.151-0.605,0.907-0.756,1.36
		C571.692,159.267,571.842,158.661,571.995,158.057z M573.204,157.149c-0.303,0.151-0.756,0.151-0.756,0.454
		C572.75,157.452,573.204,157.452,573.204,157.149z M574.565,155.789c-0.303,0.151-1.059,0.604-1.059,0.907
		C573.809,156.545,574.413,156.092,574.565,155.789z M575.471,154.429c-0.303,0.151-0.303,0.604-0.303,0.907
		C575.321,155.185,575.471,154.882,575.471,154.429z M575.321,156.999c0.301-0.303,0.453-0.605,0.453-0.907
		C575.471,156.394,575.321,156.696,575.321,156.999z M576.377,153.22c-0.453,0.15-0.756,0.604-0.906,1.209
		C576.227,154.126,576.377,153.824,576.377,153.22z M577.739,152.01c-0.605,0.151-0.756,0.604-1.361,1.21
		C577.133,152.917,577.588,152.614,577.739,152.01z M576.53,155.185c-0.152,0-0.152,0.151-0.152,0.303L576.53,155.185z
		 M576.68,154.882c0.453-0.302,0.908-0.756,0.908-1.209C577.133,153.824,576.833,154.277,576.68,154.882z M577.588,153.673
		c0.453-0.303,0.604-0.604,0.756-0.907C577.739,153.068,577.739,153.37,577.588,153.673z M578.344,151.103
		c-0.455,0.303-0.605,0.605-0.605,0.907C578.042,151.858,578.042,151.557,578.344,151.103z M579.25,150.045
		c-0.756,0-0.906,0.604-0.906,1.058C578.948,150.952,579.1,150.649,579.25,150.045z M579.401,151.708
		c-0.301,0.302-0.301,0.453-0.301,0.604L579.401,151.708z M579.704,149.289c-0.303,0.151-0.303,0.453-0.303,0.756
		C579.704,149.894,579.704,149.592,579.704,149.289z M579.553,151.708c0.303-0.151,0.453-0.605,0.453-0.907L579.553,151.708z
		 M581.368,147.173c-1.059,0.302-1.361,1.209-1.664,2.116C580.459,148.836,580.913,148.08,581.368,147.173z M581.971,146.266
		c-0.453,0.151-0.453,0.453-0.604,0.907C581.821,146.87,581.971,146.568,581.971,146.266z M581.668,148.836
		c0.303-0.303,0.455-0.454,0.455-0.756L581.668,148.836z M582.577,145.51c-0.605,0.151-0.605,0.453-0.605,0.756
		C582.424,146.114,582.424,145.813,582.577,145.51z M583.03,144.754c-0.303,0.151-0.453,0.453-0.453,0.756
		C582.879,145.358,583.03,145.057,583.03,144.754z M584.088,142.939c-0.303,0.151-0.303,0.454-0.303,0.756
		C584.088,143.545,584.088,143.242,584.088,142.939z M584.844,142.184c-0.303,0.151-0.756,0.454-0.756,0.756
		C584.542,142.789,584.844,142.486,584.844,142.184z M584.391,144.603l0.756-0.756v-0.151h-0.152L584.391,144.603z"/>
	<path fill="#0A2D47" d="M623.237,107.113c0,0.15-0.15,0.453-0.453,0.604c-0.756,0.756-10.732,2.872-11.941,3.175l-10.734,2.721
		c-0.604,0-1.209,0.151-1.662,0.302c-0.605,0.151-1.059,0.454-1.209,1.059c0,0.604-0.453,1.36-0.756,1.814
		c-0.453,2.116-1.814,9.675-2.42,11.791l-1.813,7.407c-0.152,0.302-0.152,0.756-0.152,1.058c-0.756,2.722-1.059,5.442-1.814,8.163
		c-0.604,2.268-0.906,4.385-1.359,6.651c-0.605,3.779-2.42,12.245-3.023,16.176c0,0.453-0.303,0.907-0.303,1.36
		c0,0.756,0,1.512-0.15,2.116c-0.152,0.303-0.303,0.604-0.303,0.907c0,0.151,0,0.151,0,0.302c0,1.361-0.303,3.023-0.605,4.838
		c-0.303,1.663-1.209,3.325-1.209,4.988c0,0.151,0,0.151,0,0.303c0,0.453-0.15,0.907-0.453,1.209
		c-0.303,0.303-1.965,10.279-2.117,9.826c-0.604-0.303-0.906-0.453-1.512-0.604c-0.15,0-0.453-0.303-0.604-0.454
		c-0.303-0.302-0.756-0.604-1.059-0.604c-0.303-0.151-0.303-1.209-0.303-2.569c0-3.175,0.453-8.163,0.453-9.675
		c0-0.151,0-0.303,0-0.303c0.152-1.36,0.152-2.721,0.455-4.081c0-0.605,0-1.21,0-1.814c0-0.453,0-0.907,0.15-1.512l1.059-7.407
		c0-0.604,0.15-1.209,0.15-1.663c0.756-3.325,2.268-11.187,2.57-14.21l0.756-3.93v-0.151l0.906-6.803
		c0-0.151-0.303-0.303-0.303-0.303s0.152-0.15,0.152-0.302v-0.151c0.604-1.512,1.209-3.326,1.209-4.838c0-0.15,0-0.302,0-0.453
		c0.303-0.604,0.605-1.36,0.605-2.116c0.453-0.604,0.453-1.059,0.604-1.663c0-0.756,0.605-2.419,0.605-3.175
		c0.453-0.906,1.359-6.349,1.512-7.256c0-0.151,0-0.151,0-0.302c0-0.454-0.152-0.605-0.453-0.605h-0.152l-9.523,1.663
		c-0.15,0-0.453,0-0.604,0c-0.908,0-1.664-0.302-2.117-1.058c0-0.303-0.303-0.605-0.453-0.907c0-0.151,0-0.151,0-0.303
		c0-0.302,0.15-0.453,0.303-0.604c0-0.151,0.301-0.453,0.453-0.604c1.059-0.604,2.721-0.907,4.082-1.36
		c2.721-0.756,9.674-1.512,10.58-4.233c1.664-4.081,2.42-7.709,4.385-11.942c0.756-1.965,1.662-3.93,2.873-5.896
		c0.301-0.756,1.209-1.662,1.662-2.268c0.453-0.453,0.756-0.906,1.361-0.906c0.15,0,0.15,0,0.301,0c0.303,0,0.756,0.15,1.059,0.453
		c-0.303,0.151-0.303,0.303-0.453,0.453c0.15-0.15,0.303-0.302,0.453-0.302v-0.151h0.303c0.15,0,0.15-0.151,0.303-0.151l0.15,0.151
		c0,0-0.15,0.151-0.15,0.303c-0.455,0.604-0.908,0.906-1.209,1.512c0.301-0.151,0.453-0.151,0.754-0.454
		c0.455-0.302,0.605-0.453,0.756-0.756c0.152-0.151,0.303-0.302,0.455-0.302c0.15,0,0.301,0.15,0.301,0.453
		c0.152,0.151,0.152,0.604,0.455,0.756c0.301,0,0.301,0.151,0.301,0.303c0,0.15,0,0.302,0,0.453
		c-0.301,0.907-0.453,1.663-0.906,2.569l-3.326,10.28c-0.604,1.813-0.756,2.721-1.512,4.535v0.453c0,0.303,0.152,0.453,0.455,0.453
		c0.15,0,0.15,0,0.301,0c0.605,0,1.211,0,1.967-0.15c2.418-0.303,7.557-2.268,20.709-3.326c0,0.453,0.756,0.604,0.906,0.756
		C623.086,106.811,623.237,106.962,623.237,107.113z"/>
</g>
<rect x="370.972" y="101.573" fill="#FBEEE8" width="107.862" height="21.357"/>
<g>
	<path fill="#37335E" d="M384.139,114.63l2.352-7.582h1.598l2.352,7.582l2.652-7.582h1.914l-3.678,10.536h-1.764l-2.215-7.22h-0.121
		l-2.215,7.22h-1.764l-3.678-10.536h1.914L384.139,114.63z"/>
	<path fill="#37335E" d="M401.292,115.188l-1.055,2.396h-1.899l4.642-10.536h1.9l4.642,10.536h-1.899l-1.055-2.396H401.292z
		 M405.844,113.545l-1.915-4.341l-1.914,4.341H405.844z"/>
	<path fill="#37335E" d="M418.006,117.584h-1.809v-4.16l-3.918-6.376h1.943l2.879,4.794l2.879-4.794h1.945l-3.92,6.376V117.584z"/>
	<path fill="#37335E" d="M429.952,108.435c-0.518,0-0.941,0.105-1.273,0.317c-0.332,0.211-0.498,0.529-0.498,0.957
		c0,0.427,0.166,0.753,0.498,0.979c0.332,0.226,1.037,0.47,2.117,0.73c1.08,0.262,1.895,0.629,2.441,1.101
		c0.549,0.473,0.822,1.168,0.822,2.088c0,0.919-0.347,1.665-1.04,2.238c-0.693,0.572-1.603,0.858-2.729,0.858
		c-1.647,0-3.11-0.567-4.386-1.703l1.115-1.341c1.064,0.925,2.17,1.387,3.316,1.387c0.572,0,1.027-0.123,1.363-0.369
		c0.337-0.246,0.506-0.573,0.506-0.98c0-0.406-0.158-0.724-0.476-0.949c-0.316-0.227-0.861-0.432-1.636-0.618
		c-0.773-0.186-1.361-0.356-1.763-0.513c-0.402-0.155-0.759-0.358-1.07-0.61c-0.623-0.472-0.935-1.195-0.935-2.17
		s0.354-1.726,1.063-2.254c0.709-0.527,1.585-0.791,2.631-0.791c0.672,0,1.341,0.11,2.004,0.332
		c0.664,0.221,1.236,0.532,1.719,0.935l-0.949,1.341c-0.313-0.281-0.734-0.513-1.267-0.693S430.469,108.435,429.952,108.435z"/>
	<path fill="#37335E" d="M451.664,108.676v8.908h-1.778v-8.908h-3.195v-1.628h8.169v1.628H451.664z"/>
	<path fill="#37335E" d="M468.966,116.13c-1.065,1.04-2.382,1.56-3.948,1.56c-1.568,0-2.885-0.52-3.949-1.56
		c-1.065-1.04-1.598-2.337-1.598-3.889c0-1.553,0.532-2.85,1.598-3.889c1.064-1.04,2.381-1.561,3.949-1.561
		c1.566,0,2.883,0.521,3.948,1.561c1.065,1.039,1.598,2.336,1.598,3.889C470.564,113.793,470.032,115.09,468.966,116.13z
		 M467.663,109.535c-0.719-0.743-1.6-1.115-2.645-1.115c-1.046,0-1.928,0.372-2.646,1.115c-0.718,0.744-1.077,1.646-1.077,2.706
		c0,1.06,0.359,1.962,1.077,2.705c0.719,0.744,1.601,1.115,2.646,1.115c1.045,0,1.926-0.371,2.645-1.115
		c0.719-0.743,1.078-1.646,1.078-2.705C468.741,111.181,468.381,110.279,467.663,109.535z"/>
</g>
</svg>
